<svg width="50" height="50" viewBox="0 0 50 50" fill="none" xmlns="http://www.w3.org/2000/svg">
<path d="M25 50C38.8071 50 50 38.8071 50 25C50 11.1929 38.8071 0 25 0C11.1929 0 0 11.1929 0 25C0 38.8071 11.1929 50 25 50Z" fill="#FFD54F"/>
<path d="M22.9173 19.7917C22.9173 23.8125 19.6465 27.0833 15.6257 27.0833C12.1882 27.0833 9.29232 24.6875 8.54232 21.4792C8.39648 20.9375 8.33398 20.375 8.33398 19.7917C8.33398 15.7708 11.6048 12.5 15.6257 12.5C16.834 12.5 17.9798 12.7917 18.9798 13.3333C21.334 14.5417 22.9173 16.9792 22.9173 19.7917Z" fill="white"/>
<path d="M12.1465 15.0208C12.1465 19.0417 15.4173 22.3125 19.4382 22.3125C20.5215 22.3125 21.7298 22.0417 22.709 21.4792C22.8548 20.9375 22.9173 20.375 22.9173 19.7917C22.9173 15.7708 19.6465 12.5 15.6257 12.5C14.4173 12.5 13.2715 12.7917 12.2715 13.3333L12.1882 14.25C12.1673 14.5417 12.1465 14.7917 12.1465 15.0208Z" fill="#6D4C41"/>
<path d="M28.125 19.7917C28.125 23.8125 31.3958 27.0833 35.4167 27.0833C38.8542 27.0833 41.75 24.6875 42.5 21.4792C42.6458 20.9375 42.7083 20.375 42.7083 19.7917C42.7083 15.7708 39.4375 12.5 35.4167 12.5C34.2083 12.5 33.0625 12.7917 32.0625 13.3333C29.7083 14.5417 28.125 16.9792 28.125 19.7917Z" fill="white"/>
<path d="M31.9375 15.0208C31.9375 19.0417 35.2083 22.3125 39.2292 22.3125C40.3125 22.3125 41.5208 22.0417 42.5 21.4792C42.6458 20.9375 42.7083 20.375 42.7083 19.7917C42.7083 15.7708 39.4375 12.5 35.4167 12.5C34.2083 12.5 33.0625 12.7917 32.0625 13.3333L31.9792 14.25C31.9583 14.5417 31.9375 14.7917 31.9375 15.0208Z" fill="#6D4C41"/>
<path d="M29.2937 38.1854C28.8937 38.1854 28.4937 38.0333 28.1896 37.7271C26.5542 36.0916 23.7021 36.0916 22.0667 37.7271C21.4583 38.3354 20.4688 38.3396 19.8563 37.7271C19.2458 37.1187 19.2458 36.1271 19.8563 35.5166C22.6729 32.6979 27.5833 32.6979 30.4 35.5166C31.0104 36.1271 31.0104 37.1166 30.4 37.7271C30.0917 38.0312 29.6917 38.1854 29.2937 38.1854Z" fill="#6D4C41"/>
</svg>
