<svg width="50" height="50" viewBox="0 0 50 50" fill="none" xmlns="http://www.w3.org/2000/svg">
<path d="M25 50C38.8071 50 50 38.8071 50 25C50 11.1929 38.8071 0 25 0C11.1929 0 0 11.1929 0 25C0 38.8071 11.1929 50 25 50Z" fill="#FFD54F"/>
<path d="M19.7923 21.3542C18.9298 21.3542 18.2298 20.6542 18.2298 19.7917C18.2298 18.3563 17.0611 17.1875 15.6256 17.1875C14.1902 17.1875 13.0215 18.3563 13.0215 19.7917C13.0215 20.6542 12.3215 21.3542 11.459 21.3542C10.5965 21.3542 9.89648 20.6542 9.89648 19.7917C9.89648 16.6313 12.4652 14.0625 15.6256 14.0625C18.7861 14.0625 21.3548 16.6313 21.3548 19.7917C21.3548 20.6542 20.6548 21.3542 19.7923 21.3542Z" fill="#6D4C41"/>
<path d="M38.5423 21.3542C37.6798 21.3542 36.9798 20.6542 36.9798 19.7917C36.9798 18.3563 35.8111 17.1875 34.3756 17.1875C32.9402 17.1875 31.7715 18.3563 31.7715 19.7917C31.7715 20.6542 31.0715 21.3542 30.209 21.3542C29.3465 21.3542 28.6465 20.6542 28.6465 19.7917C28.6465 16.6313 31.2152 14.0625 34.3756 14.0625C37.5361 14.0625 40.1048 16.6313 40.1048 19.7917C40.1048 20.6542 39.4048 21.3542 38.5423 21.3542Z" fill="#6D4C41"/>
<path d="M25.0011 41.7333C20.8282 41.7333 16.6553 40.1458 13.4803 36.9688C12.8699 36.3583 12.8699 35.3688 13.4803 34.7583C14.0907 34.1479 15.0803 34.1479 15.6907 34.7583C18.1782 37.2458 21.4844 38.6167 25.0032 38.6167C28.5219 38.6167 31.8261 37.2458 34.3157 34.7583C34.9261 34.1479 35.9157 34.1479 36.5261 34.7583C37.1365 35.3688 37.1365 36.3583 36.5261 36.9688C33.3469 40.1458 29.174 41.7333 25.0011 41.7333Z" fill="#6D4C41"/>
</svg>
