<svg width="155" height="155" viewBox="0 0 155 155" fill="none" xmlns="http://www.w3.org/2000/svg">
<rect width="154.966" height="154.966" fill="#145E82"/>
<g clip-path="url(#clip0)">
<path d="M108.094 112.398V121.327C108.094 122.162 107.418 122.839 106.583 122.839C105.748 122.839 105.071 122.162 105.071 121.327V112.398C105.071 105.445 99.4448 99.8184 92.4915 99.8186C89.2016 99.8186 86.2166 98.1425 84.5063 95.335C84.0721 94.622 84.2979 93.6918 85.0111 93.2576C85.724 92.8232 86.654 93.0492 87.0885 93.7623C88.2453 95.6615 90.265 96.7953 92.4915 96.7953C101.115 96.7949 108.094 103.773 108.094 112.398ZM81.7147 97.2446C81.8925 98.0603 81.3753 98.8657 80.5596 99.0435C76.5812 99.9102 72.5351 99.0425 69.3135 96.8436C66.1243 100.261 61.9109 99.8186 62.4749 99.8186C55.5222 99.8184 49.8954 105.444 49.8954 112.398V121.327C49.8954 122.162 49.2186 122.839 48.3838 122.839C47.5489 122.839 46.8721 122.162 46.8721 121.327V112.398C46.8721 103.774 53.8501 96.7953 62.4746 96.7953C65.9631 96.7953 68.7913 93.9845 68.7913 90.495V90.0969C62.193 86.9418 57.5617 80.3119 57.2794 72.5912C54.564 71.9384 52.5408 69.508 52.5408 66.6164V58.7797C52.4583 54.9438 53.0278 45.3366 60.0327 38.5844C68.6822 30.2464 82.5533 30.7761 92.7529 35.6862C93.747 36.1652 93.8979 37.5083 93.0724 38.2038C98.2394 39.4642 102.695 42.6406 105.558 47.1865C105.705 47.4207 105.976 47.7882 105.905 48.3745C105.861 48.7394 105.753 49.0482 105.472 49.3335C103.629 51.2019 102.615 53.6778 102.615 56.3053V66.6167C102.615 67.4515 101.938 68.1284 101.103 68.1284C100.268 68.1284 99.5914 67.4515 99.5914 66.6167V56.3053C99.5914 53.275 100.627 50.3986 102.528 48.0881C99.63 43.9431 95.1082 41.2772 89.9943 40.7296L87.3373 40.4451C85.7837 40.2788 85.4789 38.1385 86.9227 37.5442L88.1311 37.0467C72.3936 31.5603 55.564 37.6562 55.564 58.7633V66.6164C55.564 67.8159 56.2548 68.8583 57.2646 69.382V59.582C57.2646 53.7474 62.0116 49.0003 67.8463 49.0003H87.12C92.9547 49.0003 97.7017 53.747 97.7017 59.5814V71.9588C97.7017 85.1054 84.8548 95.091 71.7823 91.2425C71.6972 92.3211 71.4287 93.3619 70.9913 94.3294C73.5343 96.0757 76.7456 96.7801 79.9158 96.0893C80.7315 95.9117 81.5369 96.4289 81.7147 97.2446ZM77.4831 89.0391C86.9647 89.0391 94.6783 81.3254 94.6783 71.8439V59.5814C94.6783 55.4142 91.2877 52.0237 87.12 52.0237H67.8463C63.6786 52.0237 60.2879 55.4143 60.2879 59.582V71.8439C60.2879 81.3254 68.0016 89.0391 77.4831 89.0391ZM92.7888 115.092H88.2538C87.4189 115.092 86.7421 115.769 86.7421 116.603C86.7421 117.438 87.4189 118.115 88.2538 118.115H92.7888C93.6236 118.115 94.3004 117.438 94.3004 116.603C94.3004 115.769 93.6236 115.092 92.7888 115.092Z" fill="white"/>
</g>
<defs>
<clipPath id="clip0">
<rect width="90.7119" height="90.7119" fill="white" transform="translate(32.1271 32.1271)"/>
</clipPath>
</defs>
</svg>
