<svg width="42" height="42" viewBox="0 0 42 42" fill="none" xmlns="http://www.w3.org/2000/svg">
    <circle cx="21" cy="21" r="20" stroke="#F7660B" stroke-width="2"/>
    <path d="M28.8428 13.2049C27.7061 13.2049 26.608 13.468 25.6137 13.9725C24.4939 11.3943 21.9381 9.67578 19.0494 9.67578C17.3396 9.67578 15.685 10.2887 14.3895 11.4008C13.2832 12.35 12.4957 13.6121 12.1277 15.0066C8.64082 15.5064 6 18.4959 6 22.0906C6 26.0375 9.21094 29.2484 13.1578 29.2484C13.8521 29.2484 14.5324 29.1506 15.1875 28.9566C15.7471 29.8531 16.5 30.6172 17.3965 31.1926C18.549 31.9332 19.8855 32.3246 21.2607 32.3246C22.9107 32.3246 24.5209 31.7492 25.7953 30.7051C26.8307 29.8561 27.6082 28.7305 28.0371 27.4754C28.3037 27.5053 28.5732 27.5205 28.8428 27.5205C32.7891 27.5205 36 24.3096 36 20.3627C36 16.4158 32.7891 13.2049 28.8428 13.2049V13.2049ZM14.2992 24.4367H11.5688C11.2178 24.4367 10.9002 24.2281 10.7613 23.9059C10.6225 23.5836 10.6887 23.2098 10.9295 22.9543L12.2602 21.5457H11.5688C11.083 21.5457 10.6898 21.152 10.6898 20.6668C10.6898 20.1811 11.083 19.7879 11.5688 19.7879H14.2992C14.6502 19.7879 14.9672 19.9965 15.1061 20.3187C15.2449 20.641 15.1793 21.0148 14.9379 21.2697L13.6072 22.6789H14.2992C14.7844 22.6789 15.1781 23.0727 15.1781 23.5578C15.1781 24.0436 14.7844 24.4367 14.2992 24.4367V24.4367ZM23.0496 24.0084H18.951C18.6 24.0084 18.2824 23.7998 18.1436 23.4775C18.0047 23.1553 18.0709 22.7814 18.3117 22.526L21.0105 19.6684H18.951C18.4652 19.6684 18.0721 19.2746 18.0721 18.7895C18.0721 18.3043 18.4652 17.9105 18.951 17.9105H23.0496C23.4006 17.9105 23.7176 18.1191 23.8564 18.4414C23.9953 18.7637 23.9297 19.1375 23.6889 19.393L20.99 22.2506H23.0496C23.5348 22.2506 23.9285 22.6443 23.9285 23.1295C23.9285 23.6152 23.5348 24.0084 23.0496 24.0084ZM30.334 22.6982H27.6035C27.2525 22.6982 26.9355 22.4896 26.7967 22.1674C26.6578 21.8451 26.7234 21.4707 26.9648 21.2158L28.2955 19.8066H27.6035C27.1184 19.8066 26.7246 19.4135 26.7246 18.9277C26.7246 18.4426 27.1184 18.0488 27.6035 18.0488H30.334C30.685 18.0488 31.0025 18.2574 31.1414 18.5797C31.2803 18.902 31.2141 19.2764 30.9732 19.5312L29.6426 20.9404H30.334C30.8197 20.9404 31.2129 21.3336 31.2129 21.8193C31.2129 22.3045 30.8197 22.6982 30.334 22.6982Z" fill="#F7660B"/>
</svg>
