<svg width="50" height="50" viewBox="0 0 50 50" fill="none" xmlns="http://www.w3.org/2000/svg">
    <circle cx="25" cy="25" r="25" fill="#08A652"/>
    <path d="M24.5044 7H24.4956C14.8466 7 7 14.8487 7 24.5C7 28.3281 8.23375 31.8762 10.3316 34.7572L8.15062 41.2584L14.8772 39.1081C17.6444 40.9412 20.9453 42 24.5044 42C34.1534 42 42 34.1491 42 24.5C42 14.8509 34.1534 7 24.5044 7ZM34.6872 31.7122C34.265 32.9044 32.5894 33.8931 31.2528 34.1819C30.3384 34.3766 29.1441 34.5319 25.1234 32.865C19.9806 30.7344 16.6687 25.5084 16.4106 25.1694C16.1634 24.8303 14.3325 22.4022 14.3325 19.8909C14.3325 17.3797 15.6078 16.1569 16.1219 15.6319C16.5441 15.2009 17.2419 15.0041 17.9113 15.0041C18.1278 15.0041 18.3225 15.015 18.4975 15.0238C19.0116 15.0456 19.2697 15.0763 19.6087 15.8878C20.0309 16.905 21.0591 19.4163 21.1816 19.6744C21.3062 19.9325 21.4309 20.2825 21.2559 20.6216C21.0919 20.9716 20.9475 21.1269 20.6894 21.4244C20.4312 21.7219 20.1862 21.9494 19.9281 22.2688C19.6919 22.5466 19.425 22.8441 19.7225 23.3581C20.02 23.8612 21.0481 25.5391 22.5619 26.8866C24.5153 28.6256 26.0991 29.1812 26.6656 29.4175C27.0878 29.5925 27.5909 29.5509 27.8994 29.2228C28.2909 28.8006 28.7744 28.1006 29.2666 27.4116C29.6166 26.9172 30.0584 26.8559 30.5222 27.0309C30.9947 27.195 33.495 28.4309 34.0091 28.6869C34.5231 28.945 34.8622 29.0675 34.9869 29.2841C35.1094 29.5006 35.1094 30.5178 34.6872 31.7122Z" fill="white"/>
</svg>
