<svg width="50" height="50" viewBox="0 0 50 50" fill="none" xmlns="http://www.w3.org/2000/svg">
    <g clip-path="url(#clip0)">
        <path d="M10.7821 23.8433C8.03638 23.8433 5.80957 26.0701 5.80957 28.8157C5.80957 31.5614 8.03638 33.7882 10.7821 33.7882C13.5277 33.7882 15.7545 31.5614 15.7545 28.8157C15.7545 26.0701 13.5277 23.8433 10.7821 23.8433Z" fill="#08A652"/>
        <path d="M34.5202 9.22848C32.3151 8.55827 29.2775 8.17993 26.1968 8.17993C23.0836 8.17993 20.1541 8.55827 17.9706 9.22848C15.9059 9.86625 15.1816 10.5905 15.1816 10.8175C15.1925 10.8283 15.2033 10.8391 15.2033 10.8499C15.2573 11.0878 15.9167 11.8336 18.2408 12.5038C20.3919 13.1308 23.2241 13.4767 26.2076 13.4767C29.2883 13.4767 32.3259 13.0876 34.5202 12.4282C36.8768 11.7147 37.3848 10.9797 37.3848 10.8283C37.3848 10.677 36.8768 9.94192 34.5202 9.22848Z" fill="#08A652"/>
        <path d="M35.1581 14.4714C32.7367 15.2065 29.5695 15.6064 26.2293 15.6064C23.0404 15.6064 20.0029 15.2389 17.6572 14.5579C16.8464 14.3417 16.0681 14.039 15.3223 13.6607L15.3979 16.709C16.6086 17.163 17.7545 17.8116 18.7706 18.6223C18.7922 18.6332 18.8246 18.6332 18.857 18.644C20.9325 19.1736 23.5485 19.4547 26.2185 19.4547C29.2993 19.4547 32.3368 19.0764 34.5312 18.4062C36.8769 17.6927 37.3849 16.9468 37.3849 16.8063C37.3849 16.5901 37.439 16.3847 37.5579 16.201V13.4985C36.7904 13.9201 35.9797 14.2552 35.1581 14.4714Z" fill="#08A652"/>
        <path d="M25.7538 33.983C25.7322 33.8533 25.7322 33.7344 25.7538 33.6046C24.7485 33.5938 23.7756 33.5398 22.846 33.4641C22.3487 34.7505 21.6461 35.9504 20.7705 37.0205C22.446 37.3016 24.1215 37.4421 25.797 37.4637L25.7538 33.983Z" fill="#08A652"/>
        <path d="M21.3326 26.6431C20.8462 24.3082 19.6031 22.1895 17.787 20.6437C16.6736 19.6708 15.3656 18.9466 13.9604 18.5142C12.9226 18.2007 11.8525 18.0386 10.7715 18.0386C8.09069 18.0386 5.50716 19.0439 3.51817 20.8491C-0.88139 24.8487 -1.19487 31.6697 2.80473 36.0692C6.80433 40.4688 13.6253 40.7931 18.0248 36.7827C20.2733 34.7504 21.5596 31.8534 21.5488 28.8159C21.5488 28.0916 21.4731 27.3566 21.3326 26.6431ZM10.7823 35.9395C6.84757 35.9395 3.64789 32.7398 3.64789 28.8051C3.64789 24.8703 6.83676 21.6706 10.7823 21.6706C14.7171 21.6815 17.9059 24.8703 17.9167 28.8051C17.9167 32.7398 14.7171 35.9395 10.7823 35.9395Z" fill="#08A652"/>
        <path d="M25.732 31.4318L25.6887 27.8322C25.6671 27.7565 25.6455 27.6809 25.6347 27.6052C24.9537 27.5944 24.2943 27.5728 23.6565 27.5295C23.6889 27.9619 23.7105 28.3835 23.7105 28.8051C23.7105 29.6482 23.6241 30.5022 23.4619 31.3346C24.1862 31.3886 24.9537 31.421 25.732 31.4318Z" fill="#08A652"/>
        <path d="M47.0599 25.5946C44.8655 24.9243 41.8388 24.5676 38.7472 24.5676H38.6607C35.7637 24.5676 33.0072 24.8919 30.8885 25.4865C28.7806 26.0702 27.9699 26.7296 27.7861 27.0647C27.8186 27.162 27.8402 27.2593 27.8402 27.3565C28.0996 27.7241 28.9752 28.3618 31.0074 28.9131C33.1261 29.4861 35.8826 29.8104 38.7472 29.8104C41.828 29.8104 44.7574 29.4536 46.9734 28.7942C49.3732 28.0808 49.9029 27.3349 49.9137 27.1728V27.162C49.8812 26.9782 49.3299 26.2864 47.0599 25.5946Z" fill="#08A652"/>
        <path d="M47.6434 36.8367C45.2221 37.5718 42.0872 37.9717 38.747 37.9717C35.796 37.9717 32.9314 37.6474 30.6614 37.0529C29.7317 36.8259 28.8345 36.5016 27.9697 36.08L28.0022 38.523L28.013 39.1824C28.013 39.1932 28.013 39.1932 28.013 39.204C28.013 39.4419 28.7048 40.1553 30.7694 40.7931C32.9422 41.4525 35.85 41.82 38.974 41.82C42.0872 41.82 45.0059 41.4417 47.2111 40.7606C49.5135 40.0472 49.9892 39.3013 49.9892 39.15V35.853C49.3406 36.2746 48.4326 36.5989 47.6434 36.8367Z" fill="#08A652"/>
        <path d="M47.5673 30.8697C45.1567 31.5831 42.0327 31.9723 38.7466 31.9723C34.7254 31.9723 30.4339 31.3669 27.8828 30.0373L27.9261 33.4532C28.8557 34.4909 32.8553 35.7989 38.7358 35.7989C41.8706 35.7989 44.8108 35.4314 47.0268 34.7612C49.3509 34.0477 49.8482 33.3127 49.8482 33.1613C49.8482 32.9451 49.9887 32.7506 49.9995 32.5884V29.886C49.2212 30.3076 48.4105 30.6319 47.5673 30.8697Z" fill="#08A652"/>
        <path d="M35.1362 20.4923C32.7148 21.2274 29.5476 21.6273 26.2074 21.6273C24.5751 21.6273 22.932 21.5192 21.3105 21.3138C22.1753 22.5353 22.8347 23.8974 23.2347 25.335C24.1643 25.4107 25.1588 25.454 26.2074 25.454C26.2398 25.454 26.2614 25.454 26.2938 25.454C27.0505 24.6108 28.3801 23.919 30.2826 23.3785C32.304 22.8056 34.8443 22.4597 37.5468 22.384V19.4978C36.7793 19.9194 35.9794 20.2545 35.1362 20.4923Z" fill="#08A652"/>
    </g>
    <defs>
        <clipPath id="clip0">
            <rect width="50" height="50" fill="white"/>
        </clipPath>
    </defs>
</svg>
