<svg width="110" height="120" viewBox="0 0 110 120" fill="none" xmlns="http://www.w3.org/2000/svg">
    <circle cx="55" cy="55" r="55" fill="#C4C4C4"/>
    <circle cx="84.5" cy="97.5" r="22.5" fill="#5F94E2"/>
    <g filter="url(#filter0_d)">
        <path d="M81.7714 101.477L81.2752 108.457C81.9852 108.457 82.2927 108.152 82.6614 107.785L85.9901 104.604L92.8876 109.655C94.1526 110.36 95.0438 109.989 95.3851 108.492L99.9126 87.2767L99.9138 87.2755C100.315 85.4055 99.2376 84.6743 98.0051 85.133L71.3927 95.3217C69.5765 96.0267 69.604 97.0392 71.084 97.4979L77.8877 99.6142L93.6913 89.7255C94.4351 89.233 95.1113 89.5055 94.5551 89.998L81.7714 101.477Z" fill="white"/>
    </g>
    <defs>
        <filter id="filter0_d" x="66" y="85" width="37.9991" height="33" filterUnits="userSpaceOnUse" color-interpolation-filters="sRGB">
            <feFlood flood-opacity="0" result="BackgroundImageFix"/>
            <feColorMatrix in="SourceAlpha" type="matrix" values="0 0 0 0 0 0 0 0 0 0 0 0 0 0 0 0 0 0 127 0"/>
            <feOffset dy="4"/>
            <feGaussianBlur stdDeviation="2"/>
            <feColorMatrix type="matrix" values="0 0 0 0 0 0 0 0 0 0 0 0 0 0 0 0 0 0 0.25 0"/>
            <feBlend mode="normal" in2="BackgroundImageFix" result="effect1_dropShadow"/>
            <feBlend mode="normal" in="SourceGraphic" in2="effect1_dropShadow" result="shape"/>
        </filter>
    </defs>
</svg>
