<svg width="110" height="120" viewBox="0 0 110 120" fill="none" xmlns="http://www.w3.org/2000/svg">
    <circle cx="55" cy="55" r="55" fill="#C4C4C4"/>
    <circle cx="84.5" cy="97.5" r="22.5" fill="#5F94E2"/>
    <path d="M101.688 106.812C101.594 106.655 101.012 105.39 98.2118 102.791C95.2804 100.07 95.6742 100.512 99.205 95.806C101.356 92.9402 102.215 91.19 101.946 90.4419C101.69 89.7287 100.109 89.9168 100.109 89.9168L94.8494 89.9474C94.8494 89.9474 94.46 89.8949 94.169 90.0678C93.8868 90.2384 93.7053 90.6322 93.7053 90.6322C93.7053 90.6322 92.8718 92.8505 91.7604 94.7362C89.4174 98.7156 88.4789 98.9256 88.0961 98.6784C87.2057 98.103 87.4289 96.3639 87.4289 95.13C87.4289 91.2732 88.013 89.6652 86.2891 89.2496C85.7159 89.1118 85.2959 89.0199 83.8323 89.0046C81.9553 88.9849 80.3649 89.0111 79.4658 89.4508C78.8664 89.744 78.4048 90.3981 78.687 90.4353C79.0348 90.4812 79.8224 90.6475 80.2402 91.2163C80.7806 91.9492 80.7609 93.5986 80.7609 93.5986C80.7609 93.5986 81.0715 98.138 80.0368 98.7025C79.3258 99.0897 78.3523 98.2999 76.263 94.6881C75.1933 92.8395 74.3838 90.7941 74.3838 90.7941C74.3838 90.7941 74.2285 90.4134 73.9507 90.21C73.6138 89.9628 73.1413 89.884 73.1413 89.884L68.1403 89.9146C68.1403 89.9146 67.3899 89.9365 67.1142 90.2625C66.8692 90.5534 67.0946 91.1528 67.0946 91.1528C67.0946 91.1528 71.0105 100.313 75.4427 104.931C79.5095 109.164 84.1255 108.886 84.1255 108.886H86.2169C86.2169 108.886 86.8491 108.816 87.1707 108.468C87.4682 108.149 87.4573 107.549 87.4573 107.549C87.4573 107.549 87.4157 104.743 88.7196 104.329C90.0037 103.922 91.6532 107.042 93.4012 108.243C94.7225 109.151 95.7267 108.952 95.7267 108.952L100.402 108.886C100.402 108.886 102.847 108.735 101.688 106.812Z" fill="white"/>
</svg>
