<svg width="110" height="120" viewBox="0 0 110 120" fill="none" xmlns="http://www.w3.org/2000/svg">
    <circle cx="55" cy="55" r="55" fill="#C4C4C4"/>
    <circle cx="84.5" cy="97.5" r="22.5" fill="#08A652"/>
    <path d="M85.0037 83H84.9963C76.7256 83 70 89.7275 70 98C70 101.281 71.0575 104.323 72.8556 106.792L70.9863 112.364L76.7519 110.521C79.1237 112.093 81.9531 113 85.0037 113C93.2744 113 100 106.271 100 98C100 89.7294 93.2744 83 85.0037 83ZM93.7319 104.182C93.37 105.204 91.9338 106.051 90.7881 106.299C90.0044 106.466 88.9806 106.599 85.5344 105.17C81.1262 103.344 78.2875 98.8644 78.0662 98.5737C77.8544 98.2831 76.285 96.2019 76.285 94.0494C76.285 91.8969 77.3781 90.8488 77.8188 90.3988C78.1806 90.0294 78.7787 89.8606 79.3525 89.8606C79.5381 89.8606 79.705 89.87 79.855 89.8775C80.2956 89.8962 80.5169 89.9225 80.8075 90.6181C81.1694 91.49 82.0506 93.6425 82.1556 93.8638C82.2625 94.085 82.3694 94.385 82.2194 94.6756C82.0788 94.9756 81.955 95.1087 81.7337 95.3637C81.5125 95.6187 81.3025 95.8138 81.0812 96.0875C80.8787 96.3256 80.65 96.5806 80.905 97.0213C81.16 97.4525 82.0413 98.8906 83.3387 100.046C85.0131 101.536 86.3706 102.013 86.8562 102.215C87.2181 102.365 87.6494 102.329 87.9137 102.048C88.2494 101.686 88.6637 101.086 89.0856 100.496C89.3856 100.072 89.7644 100.019 90.1619 100.169C90.5669 100.31 92.71 101.369 93.1506 101.589C93.5912 101.81 93.8819 101.915 93.9887 102.101C94.0938 102.286 94.0938 103.158 93.7319 104.182Z" fill="white"/>
</svg>
