<svg width="68" height="68" viewBox="0 0 68 68" fill="none" xmlns="http://www.w3.org/2000/svg">
    <path d="M66.4 26.2574L61.1736 25.1213C60.7192 23.7299 60.1563 22.3727 59.4917 21.0653L62.385 16.5647C62.9018 15.7606 62.7881 14.7048 62.1127 14.0294L53.9706 5.88733C53.2952 5.21185 52.2394 5.09824 51.4353 5.61496L46.9347 8.5083C45.6273 7.84372 44.2701 7.28082 42.8787 6.82635L41.7426 1.59998C41.5397 0.666138 40.7127 0 39.7571 0H28.2429C27.2873 0 26.4603 0.666138 26.2574 1.59998L25.1213 6.82635C23.7299 7.28082 22.3727 7.84372 21.0653 8.5083L16.5647 5.61496C15.7606 5.09824 14.7048 5.21185 14.0294 5.88733L5.88733 14.0294C5.21185 14.7048 5.09824 15.7606 5.61496 16.5647L8.5083 21.0653C7.84372 22.3727 7.28082 23.7299 6.82635 25.1213L1.59998 26.2574C0.666138 26.4608 0 27.2873 0 28.2429V39.7571C0 40.7127 0.666138 41.5392 1.59998 41.7426L6.82635 42.8787C7.28082 44.2701 7.84372 45.6273 8.5083 46.9347L5.61496 51.4353C5.09824 52.2394 5.21185 53.2952 5.88733 53.9706L14.0294 62.1127C14.7048 62.7881 15.7606 62.9018 16.5647 62.385L21.0653 59.4917C22.3727 60.1563 23.7299 60.7192 25.1213 61.1736L26.2574 66.4C26.4603 67.3339 27.2873 68 28.2429 68H39.7571C40.7127 68 41.5397 67.3339 41.7426 66.4L42.8787 61.1736C44.2701 60.7192 45.6273 60.1563 46.9347 59.4917L51.4353 62.385C52.2394 62.9018 53.2952 62.7887 53.9706 62.1127L62.1127 53.9706C62.7881 53.2952 62.9018 52.2394 62.385 51.4353L59.4917 46.9347C60.1563 45.6273 60.7192 44.2701 61.1736 42.8787L66.4 41.7426C67.3339 41.5392 68 40.7127 68 39.7571V28.2429C68 27.2873 67.3339 26.4608 66.4 26.2574V26.2574ZM46.1913 34C46.1913 40.7221 40.7221 46.1913 34 46.1913C27.2779 46.1913 21.8087 40.7221 21.8087 34C21.8087 27.2779 27.2779 21.8087 34 21.8087C40.7221 21.8087 46.1913 27.2779 46.1913 34V34Z" fill="white"/>
</svg>
