<svg width="250" height="250" viewBox="0 0 250 250" fill="none" xmlns="http://www.w3.org/2000/svg">
    <path d="M61.2403 17.484C33.7613 33.7797 13.5648 59.9782 4.79822 90.6994C-3.96832 121.421 -0.639393 154.332 14.1014 182.676C28.8421 211.019 53.8757 232.643 84.0612 243.106C114.247 253.569 147.293 252.077 176.413 238.937C205.533 225.797 228.517 202.006 240.644 172.45C252.771 142.894 253.121 109.816 241.623 80.0095C230.124 50.2031 207.649 25.9306 178.814 12.1769C149.979 -1.57687 116.972 -3.76795 86.5714 6.05363L95.4099 33.4113C118.818 25.8487 144.234 27.5358 166.437 38.1262C188.64 48.7166 205.946 67.4064 214.799 90.3573C223.653 113.308 223.384 138.778 214.046 161.536C204.708 184.295 187.01 202.614 164.588 212.732C142.165 222.85 116.72 223.998 93.4771 215.942C70.2343 207.885 50.9584 191.235 39.608 169.41C28.2577 147.586 25.6944 122.244 32.4446 98.5885C39.1949 74.9333 54.7462 54.7603 75.905 42.2127L61.2403 17.484Z" fill="#08A652"/>
    <path d="M153.855 127H142.16V124.68L147.68 118.797C148.438 117.969 148.996 117.246 149.355 116.629C149.723 116.012 149.906 115.426 149.906 114.871C149.906 114.113 149.715 113.52 149.332 113.09C148.949 112.652 148.402 112.434 147.691 112.434C146.926 112.434 146.32 112.699 145.875 113.23C145.438 113.754 145.219 114.445 145.219 115.305H141.82C141.82 114.266 142.066 113.316 142.559 112.457C143.059 111.598 143.762 110.926 144.668 110.441C145.574 109.949 146.602 109.703 147.75 109.703C149.508 109.703 150.871 110.125 151.84 110.969C152.816 111.812 153.305 113.004 153.305 114.543C153.305 115.387 153.086 116.246 152.648 117.121C152.211 117.996 151.461 119.016 150.398 120.18L146.52 124.27H153.855V127Z" fill="black"/>
    <path d="M106 125.088L112.78 103.996H99.2203L106 125.088Z" fill="#08A652"/>
    <path d="M115.857 103.996L107.304 130.606L130.712 103.996H115.857Z" fill="#08A652"/>
    <path d="M96.1431 103.996H81.2877L104.696 130.606L96.1431 103.996Z" fill="#08A652"/>
    <path d="M131 101.066L125.234 88.9923L117.472 101.066H131Z" fill="#08A652"/>
    <path d="M89.2216 87.3944L97.2109 99.8222L105.2 87.3944H89.2216Z" fill="#08A652"/>
    <path d="M106.8 87.3944L114.789 99.8222L122.778 87.3944H106.8Z" fill="#08A652"/>
    <path d="M99.894 101.066H112.106L106 91.5681L99.894 101.066Z" fill="#08A652"/>
    <path d="M86.766 88.9923L81 101.066H94.5278L86.766 88.9923Z" fill="#08A652"/>
    <path d="M96.4023 167.547H89.2539L87.6484 172H85.3281L91.8438 154.938H93.8125L100.34 172H98.0312L96.4023 167.547ZM89.9336 165.695H95.7344L92.8281 157.715L89.9336 165.695ZM112.902 159.32V172H110.723V161.113H106.41L106.152 165.859C106.012 168.039 105.645 169.598 105.051 170.535C104.465 171.473 103.531 171.961 102.25 172H101.383V170.09L102.004 170.043C102.707 169.965 103.211 169.559 103.516 168.824C103.82 168.09 104.016 166.73 104.102 164.746L104.336 159.32H112.902ZM123.684 169.129L127.996 159.32H130.703V172H128.535V162.777L124.434 172H122.934L118.75 162.578V172H116.582V159.32H119.395L123.684 169.129ZM142.023 172C141.898 171.75 141.797 171.305 141.719 170.664C140.711 171.711 139.508 172.234 138.109 172.234C136.859 172.234 135.832 171.883 135.027 171.18C134.23 170.469 133.832 169.57 133.832 168.484C133.832 167.164 134.332 166.141 135.332 165.414C136.34 164.68 137.754 164.312 139.574 164.312H141.684V163.316C141.684 162.559 141.457 161.957 141.004 161.512C140.551 161.059 139.883 160.832 139 160.832C138.227 160.832 137.578 161.027 137.055 161.418C136.531 161.809 136.27 162.281 136.27 162.836H134.09C134.09 162.203 134.312 161.594 134.758 161.008C135.211 160.414 135.82 159.945 136.586 159.602C137.359 159.258 138.207 159.086 139.129 159.086C140.59 159.086 141.734 159.453 142.562 160.188C143.391 160.914 143.82 161.918 143.852 163.199V169.035C143.852 170.199 144 171.125 144.297 171.812V172H142.023ZM138.426 170.348C139.105 170.348 139.75 170.172 140.359 169.82C140.969 169.469 141.41 169.012 141.684 168.449V165.848H139.984C137.328 165.848 136 166.625 136 168.18C136 168.859 136.227 169.391 136.68 169.773C137.133 170.156 137.715 170.348 138.426 170.348ZM154.223 162.789C154.223 162.195 153.996 161.727 153.543 161.383C153.09 161.031 152.469 160.855 151.68 160.855C150.914 160.855 150.273 161.055 149.758 161.453C149.25 161.852 148.996 162.32 148.996 162.859H146.84C146.84 161.758 147.301 160.855 148.223 160.152C149.145 159.449 150.297 159.098 151.68 159.098C153.164 159.098 154.32 159.418 155.148 160.059C155.977 160.691 156.391 161.598 156.391 162.777C156.391 163.348 156.219 163.871 155.875 164.348C155.531 164.824 155.043 165.203 154.41 165.484C155.887 165.984 156.625 166.969 156.625 168.438C156.625 169.602 156.176 170.523 155.277 171.203C154.379 171.883 153.18 172.223 151.68 172.223C150.219 172.223 149.012 171.867 148.059 171.156C147.113 170.438 146.641 169.469 146.641 168.25H148.797C148.797 168.867 149.07 169.398 149.617 169.844C150.172 170.281 150.859 170.5 151.68 170.5C152.508 170.5 153.176 170.309 153.684 169.926C154.191 169.543 154.445 169.047 154.445 168.438C154.445 167.727 154.23 167.219 153.801 166.914C153.379 166.602 152.719 166.445 151.82 166.445H149.652V164.617H152.008C153.484 164.578 154.223 163.969 154.223 162.789ZM161.805 163.691H165.098C166.535 163.707 167.672 164.082 168.508 164.816C169.344 165.551 169.762 166.547 169.762 167.805C169.762 169.07 169.332 170.086 168.473 170.852C167.613 171.617 166.457 172 165.004 172H159.637V159.32H161.805V163.691ZM174.285 172H172.105V159.32H174.285V172ZM161.805 165.461V170.23H165.027C165.84 170.23 166.469 170.023 166.914 169.609C167.359 169.188 167.582 168.613 167.582 167.887C167.582 167.184 167.363 166.609 166.926 166.164C166.496 165.711 165.891 165.477 165.109 165.461H161.805Z" fill="black"/>
</svg>
