<svg width="137" height="69" viewBox="0 0 137 69" fill="none" xmlns="http://www.w3.org/2000/svg">
    <path d="M10.7821 15.8433C8.03638 15.8433 5.80957 18.0701 5.80957 20.8157C5.80957 23.5614 8.03638 25.7882 10.7821 25.7882C13.5277 25.7882 15.7545 23.5614 15.7545 20.8157C15.7545 18.0701 13.5277 15.8433 10.7821 15.8433Z" fill="#C4C4C4"/>
    <path d="M34.5202 1.22872C32.3151 0.558517 29.2775 0.180176 26.1968 0.180176C23.0836 0.180176 20.1541 0.558517 17.9706 1.22872C15.9059 1.8665 15.1816 2.59075 15.1816 2.81775C15.1925 2.82856 15.2033 2.83937 15.2033 2.85018C15.2573 3.088 15.9167 3.83387 18.2408 4.50407C20.3919 5.13104 23.2241 5.47695 26.2076 5.47695C29.2883 5.47695 32.3259 5.0878 34.5202 4.4284C36.8768 3.71496 37.3848 2.9799 37.3848 2.82856C37.3848 2.67722 36.8768 1.94216 34.5202 1.22872Z" fill="#C4C4C4"/>
    <path d="M35.1581 6.47141C32.7368 7.20647 29.5695 7.60643 26.2293 7.60643C23.0404 7.60643 20.0029 7.2389 17.6572 6.55789C16.8464 6.34169 16.0681 6.03902 15.3223 5.66068L15.3979 8.70903C16.6086 9.16304 17.7545 9.81162 18.7706 10.6223C18.7922 10.6332 18.8246 10.6332 18.857 10.644C20.9325 11.1736 23.5485 11.4547 26.2185 11.4547C29.2993 11.4547 32.3368 11.0764 34.5312 10.4062C36.8769 9.69271 37.3849 8.94684 37.3849 8.80632C37.3849 8.59012 37.439 8.38473 37.5579 8.20097V5.49854C36.7904 5.92011 35.9797 6.25522 35.1581 6.47141Z" fill="#C4C4C4"/>
    <path d="M25.7538 25.9827C25.7322 25.853 25.7322 25.7341 25.7538 25.6044C24.7485 25.5936 23.7756 25.5395 22.846 25.4639C22.3487 26.7502 21.6461 27.9501 20.7705 29.0203C22.446 29.3013 24.1215 29.4419 25.797 29.4635L25.7538 25.9827Z" fill="#C4C4C4"/>
    <path d="M21.3326 18.6431C20.8462 16.3082 19.6031 14.1895 17.787 12.6437C16.6736 11.6708 15.3656 10.9466 13.9604 10.5142C12.9226 10.2007 11.8525 10.0386 10.7715 10.0386C8.09069 10.0386 5.50716 11.0439 3.51817 12.8491C-0.88139 16.8487 -1.19487 23.6697 2.80473 28.0692C6.80433 32.4688 13.6253 32.7931 18.0248 28.7827C20.2733 26.7504 21.5596 23.8534 21.5488 20.8159C21.5488 20.0916 21.4731 19.3566 21.3326 18.6431ZM10.7823 27.9395C6.84757 27.9395 3.64789 24.7398 3.64789 20.8051C3.64789 16.8703 6.83676 13.6706 10.7823 13.6706C14.7171 13.6815 17.9059 16.8703 17.9167 20.8051C17.9167 24.7398 14.7171 27.9395 10.7823 27.9395Z" fill="#C4C4C4"/>
    <path d="M25.7324 23.4316L25.6892 19.832C25.6676 19.7563 25.646 19.6806 25.6352 19.605C24.9541 19.5942 24.2948 19.5725 23.657 19.5293C23.6894 19.9617 23.711 20.3833 23.711 20.8048C23.711 21.648 23.6245 22.502 23.4624 23.3343C24.1867 23.3884 24.9541 23.4208 25.7324 23.4316Z" fill="#C4C4C4"/>
    <path d="M47.0599 17.5943C44.8655 16.9241 41.8388 16.5674 38.7472 16.5674H38.6607C35.7637 16.5674 33.0072 16.8917 30.8885 17.4862C28.7806 18.0699 27.9699 18.7293 27.7861 19.0644C27.8186 19.1617 27.8402 19.259 27.8402 19.3563C28.0996 19.7238 28.9752 20.3616 31.0074 20.9129C33.1261 21.4858 35.8826 21.8101 38.7472 21.8101C41.828 21.8101 44.7574 21.4534 46.9734 20.794C49.3732 20.0805 49.9029 19.3347 49.9137 19.1725V19.1617C49.8812 18.978 49.3299 18.2861 47.0599 17.5943Z" fill="#C4C4C4"/>
    <path d="M47.6434 28.8367C45.2221 29.5718 42.0872 29.9717 38.747 29.9717C35.796 29.9717 32.9314 29.6474 30.6614 29.0529C29.7317 28.8259 28.8345 28.5016 27.9697 28.08L28.0022 30.523L28.013 31.1824C28.013 31.1932 28.013 31.1932 28.013 31.204C28.013 31.4419 28.7048 32.1553 30.7694 32.7931C32.9422 33.4525 35.85 33.82 38.974 33.82C42.0872 33.82 45.0059 33.4417 47.2111 32.7606C49.5135 32.0472 49.9892 31.3013 49.9892 31.15V27.853C49.3406 28.2746 48.4326 28.5989 47.6434 28.8367Z" fill="#C4C4C4"/>
    <path d="M47.5678 22.8699C45.1572 23.5834 42.0332 23.9725 38.7471 23.9725C34.7259 23.9725 30.4344 23.3672 27.8833 22.0376L27.9265 25.4534C28.8562 26.4912 32.8558 27.7992 38.7363 27.7992C41.8711 27.7992 44.8113 27.4316 47.0273 26.7614C49.3514 26.048 49.8487 25.3129 49.8487 25.1616C49.8487 24.9454 49.9892 24.7508 50 24.5887V21.8862C49.2217 22.3078 48.411 22.6321 47.5678 22.8699Z" fill="#C4C4C4"/>
    <path d="M35.1367 12.4925C32.7153 13.2276 29.5481 13.6276 26.2078 13.6276C24.5756 13.6276 22.9325 13.5195 21.311 13.3141C22.1758 14.5356 22.8352 15.8976 23.2352 17.3353C24.1648 17.411 25.1593 17.4542 26.2078 17.4542C26.2403 17.4542 26.2619 17.4542 26.2943 17.4542C27.051 16.611 28.3806 15.9192 30.2831 15.3787C32.3045 14.8058 34.8448 14.4599 37.5473 14.3842V11.498C36.7798 11.9196 35.9798 12.2547 35.1367 12.4925Z" fill="#C4C4C4"/>
    <path d="M81.3477 6.76172V9.55078H81.0195C79.4883 9.57422 78.2539 9.97266 77.3164 10.7461C76.3867 11.5195 75.8281 12.5938 75.6406 13.9688C76.5469 13.0469 77.6914 12.5859 79.0742 12.5859C80.5586 12.5859 81.7383 13.1172 82.6133 14.1797C83.4883 15.2422 83.9258 16.6406 83.9258 18.375C83.9258 19.4844 83.6836 20.4883 83.1992 21.3867C82.7227 22.2852 82.043 22.9844 81.1602 23.4844C80.2852 23.9844 79.293 24.2344 78.1836 24.2344C76.3867 24.2344 74.9336 23.6094 73.8242 22.3594C72.7227 21.1094 72.1719 19.4414 72.1719 17.3555V16.1367C72.1719 14.2852 72.5195 12.6523 73.2148 11.2383C73.918 9.81641 74.9219 8.71875 76.2266 7.94531C77.5391 7.16406 79.0586 6.76953 80.7852 6.76172H81.3477ZM78.043 15.3047C77.4961 15.3047 77 15.4492 76.5547 15.7383C76.1094 16.0195 75.7812 16.3945 75.5703 16.8633V17.8945C75.5703 19.0273 75.793 19.9141 76.2383 20.5547C76.6836 21.1875 77.3086 21.5039 78.1133 21.5039C78.8398 21.5039 79.4258 21.2188 79.8711 20.6484C80.3242 20.0703 80.5508 19.3242 80.5508 18.4102C80.5508 17.4805 80.3242 16.7305 79.8711 16.1602C79.418 15.5898 78.8086 15.3047 78.043 15.3047ZM86.4453 15.6094L87.4297 6.9375H96.9922V9.76172H90.207L89.7852 13.4297C90.5898 13 91.4453 12.7852 92.3516 12.7852C93.9766 12.7852 95.25 13.2891 96.1719 14.2969C97.0938 15.3047 97.5547 16.7148 97.5547 18.5273C97.5547 19.6289 97.3203 20.6172 96.8516 21.4922C96.3906 22.3594 95.7266 23.0352 94.8594 23.5195C93.9922 23.9961 92.9688 24.2344 91.7891 24.2344C90.7578 24.2344 89.8008 24.0273 88.918 23.6133C88.0352 23.1914 87.3359 22.6016 86.8203 21.8438C86.3125 21.0859 86.043 20.2227 86.0117 19.2539H89.3633C89.4336 19.9648 89.6797 20.5195 90.1016 20.918C90.5312 21.3086 91.0898 21.5039 91.7773 21.5039C92.543 21.5039 93.1328 21.2305 93.5469 20.6836C93.9609 20.1289 94.168 19.3477 94.168 18.3398C94.168 17.3711 93.9297 16.6289 93.4531 16.1133C92.9766 15.5977 92.3008 15.3398 91.4258 15.3398C90.6211 15.3398 89.9688 15.5508 89.4688 15.9727L89.1406 16.2773L86.4453 15.6094ZM109.742 17.5781H111.676V20.3086H109.742V24H106.355V20.3086H99.3594L99.207 18.1758L106.32 6.9375H109.742V17.5781ZM102.582 17.5781H106.355V11.5547L106.133 11.9414L102.582 17.5781Z" fill="black"/>
    <path d="M25.5312 58.5859C25.3203 60.3906 24.6523 61.7852 23.5273 62.7695C22.4102 63.7461 20.9219 64.2344 19.0625 64.2344C17.0469 64.2344 15.4297 63.5117 14.2109 62.0664C13 60.6211 12.3945 58.6875 12.3945 56.2656V54.625C12.3945 53.0391 12.6758 51.6445 13.2383 50.4414C13.8086 49.2383 14.6133 48.3164 15.6523 47.6758C16.6914 47.0273 17.8945 46.7031 19.2617 46.7031C21.0742 46.7031 22.5273 47.2109 23.6211 48.2266C24.7148 49.2344 25.3516 50.6328 25.5312 52.4219H23.2695C23.0742 51.0625 22.6484 50.0781 21.9922 49.4688C21.3438 48.8594 20.4336 48.5547 19.2617 48.5547C17.8242 48.5547 16.6953 49.0859 15.875 50.1484C15.0625 51.2109 14.6562 52.7227 14.6562 54.6836V56.3359C14.6562 58.1875 15.043 59.6602 15.8164 60.7539C16.5898 61.8477 17.6719 62.3945 19.0625 62.3945C20.3125 62.3945 21.2695 62.1133 21.9336 61.5508C22.6055 60.9805 23.0508 59.9922 23.2695 58.5859H25.5312ZM33.8398 52.0469C35.4336 52.0469 36.707 52.582 37.6602 53.6523C38.6211 54.7148 39.1016 56.1172 39.1016 57.8594V58.0586C39.1016 59.2539 38.8711 60.3242 38.4102 61.2695C37.9492 62.207 37.2852 62.9375 36.418 63.4609C35.5586 63.9766 34.5664 64.2344 33.4414 64.2344C31.7383 64.2344 30.3672 63.668 29.3281 62.5352C28.2891 61.3945 27.7695 59.8672 27.7695 57.9531V56.8984C27.7695 54.2344 28.2617 52.1172 29.2461 50.5469C30.2383 48.9766 31.6992 48.0195 33.6289 47.6758C34.7227 47.4805 35.4609 47.2422 35.8438 46.9609C36.2266 46.6797 36.418 46.293 36.418 45.8008H38.1992C38.1992 46.7773 37.9766 47.5391 37.5312 48.0859C37.0938 48.6328 36.3906 49.0195 35.4219 49.2461L33.8047 49.6094C32.5156 49.9141 31.5469 50.4297 30.8984 51.1562C30.2578 51.875 29.8398 52.8359 29.6445 54.0391C30.793 52.7109 32.1914 52.0469 33.8398 52.0469ZM33.418 53.8281C32.3555 53.8281 31.5117 54.1875 30.8867 54.9062C30.2617 55.6172 29.9492 56.6055 29.9492 57.8711V58.0586C29.9492 59.418 30.2617 60.4961 30.8867 61.293C31.5195 62.082 32.3711 62.4766 33.4414 62.4766C34.5195 62.4766 35.3711 62.0781 35.9961 61.2812C36.6211 60.4844 36.9336 59.3203 36.9336 57.7891C36.9336 56.5938 36.6172 55.6367 35.9844 54.918C35.3594 54.1914 34.5039 53.8281 33.418 53.8281ZM46.8008 64.2344C45.082 64.2344 43.6836 63.6719 42.6055 62.5469C41.5273 61.4141 40.9883 59.9023 40.9883 58.0117V57.6133C40.9883 56.3555 41.2266 55.2344 41.7031 54.25C42.1875 53.2578 42.8594 52.4844 43.7188 51.9297C44.5859 51.3672 45.5234 51.0859 46.5312 51.0859C48.1797 51.0859 49.4609 51.6289 50.375 52.7148C51.2891 53.8008 51.7461 55.3555 51.7461 57.3789V58.2812H43.1562C43.1875 59.5312 43.5508 60.543 44.2461 61.3164C44.9492 62.082 45.8398 62.4648 46.918 62.4648C47.6836 62.4648 48.332 62.3086 48.8633 61.9961C49.3945 61.6836 49.8594 61.2695 50.2578 60.7539L51.582 61.7852C50.5195 63.418 48.9258 64.2344 46.8008 64.2344ZM46.5312 52.8672C45.6562 52.8672 44.9219 53.1875 44.3281 53.8281C43.7344 54.4609 43.3672 55.3516 43.2266 56.5H49.5781V56.3359C49.5156 55.2344 49.2188 54.3828 48.6875 53.7812C48.1562 53.1719 47.4375 52.8672 46.5312 52.8672ZM64.9766 57.8008C64.9766 59.7305 64.5352 61.2852 63.6523 62.4648C62.7695 63.6445 61.5742 64.2344 60.0664 64.2344C58.5273 64.2344 57.3164 63.7461 56.4336 62.7695V68.875H54.2656V51.3203H56.2461L56.3516 52.7266C57.2344 51.6328 58.4609 51.0859 60.0312 51.0859C61.5547 51.0859 62.7578 51.6602 63.6406 52.8086C64.5312 53.957 64.9766 55.5547 64.9766 57.6016V57.8008ZM62.8086 57.5547C62.8086 56.125 62.5039 54.9961 61.8945 54.168C61.2852 53.3398 60.4492 52.9258 59.3867 52.9258C58.0742 52.9258 57.0898 53.5078 56.4336 54.6719V60.7305C57.082 61.8867 58.0742 62.4648 59.4102 62.4648C60.4492 62.4648 61.2734 62.0547 61.8828 61.2344C62.5 60.4062 62.8086 59.1797 62.8086 57.5547ZM71.6914 58.5977H70.1094V64H67.9297V51.3203H70.1094V56.6875H71.5273L75.793 51.3203H78.418L73.4023 57.4141L78.8398 64H76.0859L71.6914 58.5977ZM79.8711 57.543C79.8711 56.3008 80.1133 55.1836 80.5977 54.1914C81.0898 53.1992 81.7695 52.4336 82.6367 51.8945C83.5117 51.3555 84.5078 51.0859 85.625 51.0859C87.3516 51.0859 88.7461 51.6836 89.8086 52.8789C90.8789 54.0742 91.4141 55.6641 91.4141 57.6484V57.8008C91.4141 59.0352 91.1758 60.1445 90.6992 61.1289C90.2305 62.1055 89.5547 62.8672 88.6719 63.4141C87.7969 63.9609 86.7891 64.2344 85.6484 64.2344C83.9297 64.2344 82.5352 63.6367 81.4648 62.4414C80.4023 61.2461 79.8711 59.6641 79.8711 57.6953V57.543ZM82.0508 57.8008C82.0508 59.207 82.375 60.3359 83.0234 61.1875C83.6797 62.0391 84.5547 62.4648 85.6484 62.4648C86.75 62.4648 87.625 62.0352 88.2734 61.1758C88.9219 60.3086 89.2461 59.0977 89.2461 57.543C89.2461 56.1523 88.9141 55.0273 88.25 54.168C87.5938 53.3008 86.7188 52.8672 85.625 52.8672C84.5547 52.8672 83.6914 53.293 83.0352 54.1445C82.3789 54.9961 82.0508 56.2148 82.0508 57.8008ZM102.336 51.3203H104.504V64H102.336V54.7539L96.4883 64H94.3203V51.3203H96.4883V60.5781L102.336 51.3203ZM118.344 64H116.176V58.5859H110.352V64H108.172V51.3203H110.352V56.8164H116.176V51.3203H118.344V64ZM124.203 55.6914H127.496C128.934 55.707 130.07 56.082 130.906 56.8164C131.742 57.5508 132.16 58.5469 132.16 59.8047C132.16 61.0703 131.73 62.0859 130.871 62.8516C130.012 63.6172 128.855 64 127.402 64H122.035V51.3203H124.203V55.6914ZM136.684 64H134.504V51.3203H136.684V64ZM124.203 57.4609V62.2305H127.426C128.238 62.2305 128.867 62.0234 129.312 61.6094C129.758 61.1875 129.98 60.6133 129.98 59.8867C129.98 59.1836 129.762 58.6094 129.324 58.1641C128.895 57.7109 128.289 57.4766 127.508 57.4609H124.203Z" fill="black"/>
</svg>
