<svg width="250" height="250" viewBox="0 0 250 250" fill="none" xmlns="http://www.w3.org/2000/svg">
    <path d="M61.2403 17.484C33.7613 33.7797 13.5648 59.9782 4.79822 90.6994C-3.96832 121.421 -0.639393 154.332 14.1014 182.676C28.8421 211.019 53.8757 232.643 84.0612 243.106C114.247 253.569 147.293 252.077 176.413 238.937C205.533 225.797 228.517 202.006 240.644 172.45C252.771 142.894 253.121 109.816 241.623 80.0095C230.124 50.2031 207.649 25.9306 178.814 12.1769C149.979 -1.57687 116.972 -3.76795 86.5714 6.05363L95.4099 33.4113C118.818 25.8487 144.234 27.5358 166.437 38.1262C188.64 48.7166 205.946 67.4064 214.799 90.3573C223.653 113.308 223.384 138.778 214.046 161.536C204.708 184.295 187.01 202.614 164.588 212.732C142.165 222.85 116.72 223.998 93.4771 215.942C70.2343 207.885 50.9584 191.235 39.608 169.41C28.2577 147.586 25.6944 122.244 32.4446 98.5885C39.1949 74.9332 54.7462 54.7604 75.905 42.2127L61.2403 17.484Z" fill="#08A652"/>
    <g clip-path="url(#clip0)">
        <path d="M65.7821 109.843C63.0364 109.843 60.8096 112.07 60.8096 114.816C60.8096 117.561 63.0364 119.788 65.7821 119.788C68.5277 119.788 70.7545 117.561 70.7545 114.816C70.7545 112.07 68.5277 109.843 65.7821 109.843Z" fill="#08A652"/>
        <path d="M89.5202 95.2287C87.3151 94.5585 84.2775 94.1802 81.1968 94.1802C78.0836 94.1802 75.1541 94.5585 72.9706 95.2287C70.9059 95.8665 70.1816 96.5907 70.1816 96.8178C70.1925 96.8286 70.2033 96.8394 70.2033 96.8502C70.2573 97.088 70.9167 97.8339 73.2408 98.5041C75.3919 99.131 78.2241 99.4769 81.2076 99.4769C84.2883 99.4769 87.3259 99.0878 89.5202 98.4284C91.8768 97.715 92.3848 96.9799 92.3848 96.8286C92.3848 96.6772 91.8768 95.9422 89.5202 95.2287Z" fill="#08A652"/>
        <path d="M90.1581 100.471C87.7368 101.206 84.5695 101.606 81.2293 101.606C78.0404 101.606 75.0029 101.239 72.6572 100.558C71.8464 100.342 71.0681 100.039 70.3223 99.6607L70.3979 102.709C71.6086 103.163 72.7545 103.812 73.7706 104.622C73.7922 104.633 73.8246 104.633 73.857 104.644C75.9325 105.174 78.5485 105.455 81.2185 105.455C84.2993 105.455 87.3368 105.076 89.5312 104.406C91.8769 103.693 92.3849 102.947 92.3849 102.806C92.3849 102.59 92.439 102.385 92.5579 102.201V99.4985C91.7904 99.9201 90.9797 100.255 90.1581 100.471Z" fill="#08A652"/>
        <path d="M80.7538 119.983C80.7322 119.853 80.7322 119.734 80.7538 119.604C79.7485 119.594 78.7756 119.54 77.846 119.464C77.3487 120.75 76.6461 121.95 75.7705 123.02C77.446 123.301 79.1215 123.442 80.797 123.463L80.7538 119.983Z" fill="#08A652"/>
        <path d="M76.3326 112.643C75.8462 110.308 74.6031 108.19 72.787 106.644C71.6736 105.671 70.3656 104.947 68.9604 104.514C67.9226 104.201 66.8525 104.039 65.7715 104.039C63.0907 104.039 60.5072 105.044 58.5182 106.849C54.1186 110.849 53.8051 117.67 57.8047 122.069C61.8043 126.469 68.6253 126.793 73.0248 122.783C75.2733 120.75 76.5596 117.853 76.5488 114.816C76.5488 114.092 76.4731 113.357 76.3326 112.643ZM65.7823 121.94C61.8476 121.94 58.6479 118.74 58.6479 114.805C58.6479 110.87 61.8368 107.671 65.7823 107.671C69.7171 107.681 72.9059 110.87 72.9167 114.805C72.9167 118.74 69.7171 121.94 65.7823 121.94Z" fill="#08A652"/>
        <path d="M80.7324 117.432L80.6892 113.832C80.6676 113.756 80.646 113.681 80.6352 113.605C79.9541 113.594 79.2948 113.573 78.657 113.529C78.6894 113.962 78.711 114.383 78.711 114.805C78.711 115.648 78.6245 116.502 78.4624 117.334C79.1867 117.388 79.9541 117.421 80.7324 117.432Z" fill="#08A652"/>
        <path d="M102.06 111.594C99.8655 110.924 96.8388 110.567 93.7472 110.567H93.6607C90.7637 110.567 88.0072 110.892 85.8885 111.486C83.7806 112.07 82.9699 112.729 82.7861 113.064C82.8186 113.162 82.8402 113.259 82.8402 113.356C83.0996 113.724 83.9752 114.362 86.0074 114.913C88.1261 115.486 90.8826 115.81 93.7472 115.81C96.828 115.81 99.7574 115.453 101.973 114.794C104.373 114.081 104.903 113.335 104.914 113.173V113.162C104.881 112.978 104.33 112.286 102.06 111.594Z" fill="#08A652"/>
        <path d="M102.643 122.837C100.222 123.572 97.0872 123.972 93.747 123.972C90.796 123.972 87.9314 123.647 85.6614 123.053C84.7317 122.826 83.8345 122.502 82.9697 122.08L83.0022 124.523L83.013 125.182C83.013 125.193 83.013 125.193 83.013 125.204C83.013 125.442 83.7048 126.155 85.7694 126.793C87.9422 127.452 90.85 127.82 93.974 127.82C97.0872 127.82 100.006 127.442 102.211 126.761C104.514 126.047 104.989 125.301 104.989 125.15V121.853C104.341 122.275 103.433 122.599 102.643 122.837Z" fill="#08A652"/>
        <path d="M102.568 116.87C100.157 117.583 97.0332 117.973 93.7471 117.973C89.7259 117.973 85.4344 117.367 82.8833 116.038L82.9265 119.453C83.8562 120.491 87.8558 121.799 93.7363 121.799C96.8711 121.799 99.8113 121.432 102.027 120.761C104.351 120.048 104.849 119.313 104.849 119.162C104.849 118.945 104.989 118.751 105 118.589V115.886C104.222 116.308 103.411 116.632 102.568 116.87Z" fill="#08A652"/>
        <path d="M90.1367 106.493C87.7153 107.228 84.5481 107.628 81.2078 107.628C79.5756 107.628 77.9325 107.519 76.311 107.314C77.1758 108.536 77.8352 109.898 78.2352 111.335C79.1648 111.411 80.1593 111.454 81.2078 111.454C81.2403 111.454 81.2619 111.454 81.2943 111.454C82.051 110.611 83.3806 109.919 85.2831 109.379C87.3045 108.806 89.8448 108.46 92.5473 108.384V105.498C91.7798 105.92 90.9798 106.255 90.1367 106.493Z" fill="#08A652"/>
    </g>
    <path d="M136.348 100.762V103.551H136.02C134.488 103.574 133.254 103.973 132.316 104.746C131.387 105.52 130.828 106.594 130.641 107.969C131.547 107.047 132.691 106.586 134.074 106.586C135.559 106.586 136.738 107.117 137.613 108.18C138.488 109.242 138.926 110.641 138.926 112.375C138.926 113.484 138.684 114.488 138.199 115.387C137.723 116.285 137.043 116.984 136.16 117.484C135.285 117.984 134.293 118.234 133.184 118.234C131.387 118.234 129.934 117.609 128.824 116.359C127.723 115.109 127.172 113.441 127.172 111.355V110.137C127.172 108.285 127.52 106.652 128.215 105.238C128.918 103.816 129.922 102.719 131.227 101.945C132.539 101.164 134.059 100.77 135.785 100.762H136.348ZM133.043 109.305C132.496 109.305 132 109.449 131.555 109.738C131.109 110.02 130.781 110.395 130.57 110.863V111.895C130.57 113.027 130.793 113.914 131.238 114.555C131.684 115.188 132.309 115.504 133.113 115.504C133.84 115.504 134.426 115.219 134.871 114.648C135.324 114.07 135.551 113.324 135.551 112.41C135.551 111.48 135.324 110.73 134.871 110.16C134.418 109.59 133.809 109.305 133.043 109.305ZM141.445 109.609L142.43 100.938H151.992V103.762H145.207L144.785 107.43C145.59 107 146.445 106.785 147.352 106.785C148.977 106.785 150.25 107.289 151.172 108.297C152.094 109.305 152.555 110.715 152.555 112.527C152.555 113.629 152.32 114.617 151.852 115.492C151.391 116.359 150.727 117.035 149.859 117.52C148.992 117.996 147.969 118.234 146.789 118.234C145.758 118.234 144.801 118.027 143.918 117.613C143.035 117.191 142.336 116.602 141.82 115.844C141.312 115.086 141.043 114.223 141.012 113.254H144.363C144.434 113.965 144.68 114.52 145.102 114.918C145.531 115.309 146.09 115.504 146.777 115.504C147.543 115.504 148.133 115.23 148.547 114.684C148.961 114.129 149.168 113.348 149.168 112.34C149.168 111.371 148.93 110.629 148.453 110.113C147.977 109.598 147.301 109.34 146.426 109.34C145.621 109.34 144.969 109.551 144.469 109.973L144.141 110.277L141.445 109.609ZM164.742 111.578H166.676V114.309H164.742V118H161.355V114.309H154.359L154.207 112.176L161.32 100.938H164.742V111.578ZM157.582 111.578H161.355V105.555L161.133 105.941L157.582 111.578Z" fill="black"/>
    <path d="M80.5312 152.586C80.3203 154.391 79.6523 155.785 78.5273 156.77C77.4102 157.746 75.9219 158.234 74.0625 158.234C72.0469 158.234 70.4297 157.512 69.2109 156.066C68 154.621 67.3945 152.688 67.3945 150.266V148.625C67.3945 147.039 67.6758 145.645 68.2383 144.441C68.8086 143.238 69.6133 142.316 70.6523 141.676C71.6914 141.027 72.8945 140.703 74.2617 140.703C76.0742 140.703 77.5273 141.211 78.6211 142.227C79.7148 143.234 80.3516 144.633 80.5312 146.422H78.2695C78.0742 145.062 77.6484 144.078 76.9922 143.469C76.3438 142.859 75.4336 142.555 74.2617 142.555C72.8242 142.555 71.6953 143.086 70.875 144.148C70.0625 145.211 69.6562 146.723 69.6562 148.684V150.336C69.6562 152.188 70.043 153.66 70.8164 154.754C71.5898 155.848 72.6719 156.395 74.0625 156.395C75.3125 156.395 76.2695 156.113 76.9336 155.551C77.6055 154.98 78.0508 153.992 78.2695 152.586H80.5312ZM88.8398 146.047C90.4336 146.047 91.707 146.582 92.6602 147.652C93.6211 148.715 94.1016 150.117 94.1016 151.859V152.059C94.1016 153.254 93.8711 154.324 93.4102 155.27C92.9492 156.207 92.2852 156.938 91.418 157.461C90.5586 157.977 89.5664 158.234 88.4414 158.234C86.7383 158.234 85.3672 157.668 84.3281 156.535C83.2891 155.395 82.7695 153.867 82.7695 151.953V150.898C82.7695 148.234 83.2617 146.117 84.2461 144.547C85.2383 142.977 86.6992 142.02 88.6289 141.676C89.7227 141.48 90.4609 141.242 90.8438 140.961C91.2266 140.68 91.418 140.293 91.418 139.801H93.1992C93.1992 140.777 92.9766 141.539 92.5312 142.086C92.0938 142.633 91.3906 143.02 90.4219 143.246L88.8047 143.609C87.5156 143.914 86.5469 144.43 85.8984 145.156C85.2578 145.875 84.8398 146.836 84.6445 148.039C85.793 146.711 87.1914 146.047 88.8398 146.047ZM88.418 147.828C87.3555 147.828 86.5117 148.188 85.8867 148.906C85.2617 149.617 84.9492 150.605 84.9492 151.871V152.059C84.9492 153.418 85.2617 154.496 85.8867 155.293C86.5195 156.082 87.3711 156.477 88.4414 156.477C89.5195 156.477 90.3711 156.078 90.9961 155.281C91.6211 154.484 91.9336 153.32 91.9336 151.789C91.9336 150.594 91.6172 149.637 90.9844 148.918C90.3594 148.191 89.5039 147.828 88.418 147.828ZM101.801 158.234C100.082 158.234 98.6836 157.672 97.6055 156.547C96.5273 155.414 95.9883 153.902 95.9883 152.012V151.613C95.9883 150.355 96.2266 149.234 96.7031 148.25C97.1875 147.258 97.8594 146.484 98.7188 145.93C99.5859 145.367 100.523 145.086 101.531 145.086C103.18 145.086 104.461 145.629 105.375 146.715C106.289 147.801 106.746 149.355 106.746 151.379V152.281H98.1562C98.1875 153.531 98.5508 154.543 99.2461 155.316C99.9492 156.082 100.84 156.465 101.918 156.465C102.684 156.465 103.332 156.309 103.863 155.996C104.395 155.684 104.859 155.27 105.258 154.754L106.582 155.785C105.52 157.418 103.926 158.234 101.801 158.234ZM101.531 146.867C100.656 146.867 99.9219 147.188 99.3281 147.828C98.7344 148.461 98.3672 149.352 98.2266 150.5H104.578V150.336C104.516 149.234 104.219 148.383 103.688 147.781C103.156 147.172 102.438 146.867 101.531 146.867ZM119.977 151.801C119.977 153.73 119.535 155.285 118.652 156.465C117.77 157.645 116.574 158.234 115.066 158.234C113.527 158.234 112.316 157.746 111.434 156.77V162.875H109.266V145.32H111.246L111.352 146.727C112.234 145.633 113.461 145.086 115.031 145.086C116.555 145.086 117.758 145.66 118.641 146.809C119.531 147.957 119.977 149.555 119.977 151.602V151.801ZM117.809 151.555C117.809 150.125 117.504 148.996 116.895 148.168C116.285 147.34 115.449 146.926 114.387 146.926C113.074 146.926 112.09 147.508 111.434 148.672V154.73C112.082 155.887 113.074 156.465 114.41 156.465C115.449 156.465 116.273 156.055 116.883 155.234C117.5 154.406 117.809 153.18 117.809 151.555ZM126.691 152.598H125.109V158H122.93V145.32H125.109V150.688H126.527L130.793 145.32H133.418L128.402 151.414L133.84 158H131.086L126.691 152.598ZM134.871 151.543C134.871 150.301 135.113 149.184 135.598 148.191C136.09 147.199 136.77 146.434 137.637 145.895C138.512 145.355 139.508 145.086 140.625 145.086C142.352 145.086 143.746 145.684 144.809 146.879C145.879 148.074 146.414 149.664 146.414 151.648V151.801C146.414 153.035 146.176 154.145 145.699 155.129C145.23 156.105 144.555 156.867 143.672 157.414C142.797 157.961 141.789 158.234 140.648 158.234C138.93 158.234 137.535 157.637 136.465 156.441C135.402 155.246 134.871 153.664 134.871 151.695V151.543ZM137.051 151.801C137.051 153.207 137.375 154.336 138.023 155.188C138.68 156.039 139.555 156.465 140.648 156.465C141.75 156.465 142.625 156.035 143.273 155.176C143.922 154.309 144.246 153.098 144.246 151.543C144.246 150.152 143.914 149.027 143.25 148.168C142.594 147.301 141.719 146.867 140.625 146.867C139.555 146.867 138.691 147.293 138.035 148.145C137.379 148.996 137.051 150.215 137.051 151.801ZM157.336 145.32H159.504V158H157.336V148.754L151.488 158H149.32V145.32H151.488V154.578L157.336 145.32ZM173.344 158H171.176V152.586H165.352V158H163.172V145.32H165.352V150.816H171.176V145.32H173.344V158ZM179.203 149.691H182.496C183.934 149.707 185.07 150.082 185.906 150.816C186.742 151.551 187.16 152.547 187.16 153.805C187.16 155.07 186.73 156.086 185.871 156.852C185.012 157.617 183.855 158 182.402 158H177.035V145.32H179.203V149.691ZM191.684 158H189.504V145.32H191.684V158ZM179.203 151.461V156.23H182.426C183.238 156.23 183.867 156.023 184.312 155.609C184.758 155.188 184.98 154.613 184.98 153.887C184.98 153.184 184.762 152.609 184.324 152.164C183.895 151.711 183.289 151.477 182.508 151.461H179.203Z" fill="black"/>
    <defs>
        <clipPath id="clip0">
            <rect width="50" height="50" fill="white" transform="translate(55 86)"/>
        </clipPath>
    </defs>
</svg>
