<svg width="94" height="89" viewBox="0 0 94 89" fill="none" xmlns="http://www.w3.org/2000/svg">
    <path d="M72.8555 43H61.1602V40.6797L66.6797 34.7969C67.4375 33.9688 67.9961 33.2461 68.3555 32.6289C68.7227 32.0117 68.9062 31.4258 68.9062 30.8711C68.9062 30.1133 68.7148 29.5195 68.332 29.0898C67.9492 28.6523 67.4023 28.4336 66.6914 28.4336C65.9258 28.4336 65.3203 28.6992 64.875 29.2305C64.4375 29.7539 64.2188 30.4453 64.2188 31.3047H60.8203C60.8203 30.2656 61.0664 29.3164 61.5586 28.457C62.0586 27.5977 62.7617 26.9258 63.668 26.4414C64.5742 25.9492 65.6016 25.7031 66.75 25.7031C68.5078 25.7031 69.8711 26.125 70.8398 26.9688C71.8164 27.8125 72.3047 29.0039 72.3047 30.543C72.3047 31.3867 72.0859 32.2461 71.6484 33.1211C71.2109 33.9961 70.4609 35.0156 69.3984 36.1797L65.5195 40.2695H72.8555V43Z" fill="black"/>
    <path d="M24.9998 41.088L31.7794 19.9961H18.2202L24.9998 41.088Z" fill="#C4C4C4"/>
    <path d="M34.8568 19.9961L26.3037 46.6057L49.7122 19.9961H34.8568Z" fill="#C4C4C4"/>
    <path d="M15.143 19.9961H0.287598L23.696 46.6057L15.143 19.9961Z" fill="#C4C4C4"/>
    <path d="M50 17.0662L44.234 4.99219L36.4722 17.0662H50Z" fill="#C4C4C4"/>
    <path d="M8.22168 3.39453L16.211 15.8224L24.2004 3.39453H8.22168Z" fill="#C4C4C4"/>
    <path d="M25.7998 3.39453L33.7892 15.8224L41.7785 3.39453H25.7998Z" fill="#C4C4C4"/>
    <path d="M18.894 17.0665H31.106L25 7.56836L18.894 17.0665Z" fill="#C4C4C4"/>
    <path d="M5.76602 4.99219L0 17.0662H13.5278L5.76602 4.99219Z" fill="#C4C4C4"/>
    <path d="M15.4023 83.5469H8.25391L6.64844 88H4.32812L10.8438 70.9375H12.8125L19.3398 88H17.0312L15.4023 83.5469ZM8.93359 81.6953H14.7344L11.8281 73.7148L8.93359 81.6953ZM31.9023 75.3203V88H29.7227V77.1133H25.4102L25.1523 81.8594C25.0117 84.0391 24.6445 85.5977 24.0508 86.5352C23.4648 87.4727 22.5312 87.9609 21.25 88H20.3828V86.0898L21.0039 86.043C21.707 85.9648 22.2109 85.5586 22.5156 84.8242C22.8203 84.0898 23.0156 82.7305 23.1016 80.7461L23.3359 75.3203H31.9023ZM42.6836 85.1289L46.9961 75.3203H49.7031V88H47.5352V78.7773L43.4336 88H41.9336L37.75 78.5781V88H35.582V75.3203H38.3945L42.6836 85.1289ZM61.0234 88C60.8984 87.75 60.7969 87.3047 60.7188 86.6641C59.7109 87.7109 58.5078 88.2344 57.1094 88.2344C55.8594 88.2344 54.832 87.8828 54.0273 87.1797C53.2305 86.4688 52.832 85.5703 52.832 84.4844C52.832 83.1641 53.332 82.1406 54.332 81.4141C55.3398 80.6797 56.7539 80.3125 58.5742 80.3125H60.6836V79.3164C60.6836 78.5586 60.457 77.957 60.0039 77.5117C59.5508 77.0586 58.8828 76.832 58 76.832C57.2266 76.832 56.5781 77.0273 56.0547 77.418C55.5312 77.8086 55.2695 78.2812 55.2695 78.8359H53.0898C53.0898 78.2031 53.3125 77.5938 53.7578 77.0078C54.2109 76.4141 54.8203 75.9453 55.5859 75.6016C56.3594 75.2578 57.207 75.0859 58.1289 75.0859C59.5898 75.0859 60.7344 75.4531 61.5625 76.1875C62.3906 76.9141 62.8203 77.918 62.8516 79.1992V85.0352C62.8516 86.1992 63 87.125 63.2969 87.8125V88H61.0234ZM57.4258 86.3477C58.1055 86.3477 58.75 86.1719 59.3594 85.8203C59.9688 85.4688 60.4102 85.0117 60.6836 84.4492V81.8477H58.9844C56.3281 81.8477 55 82.625 55 84.1797C55 84.8594 55.2266 85.3906 55.6797 85.7734C56.1328 86.1562 56.7148 86.3477 57.4258 86.3477ZM73.2227 78.7891C73.2227 78.1953 72.9961 77.7266 72.543 77.3828C72.0898 77.0312 71.4688 76.8555 70.6797 76.8555C69.9141 76.8555 69.2734 77.0547 68.7578 77.4531C68.25 77.8516 67.9961 78.3203 67.9961 78.8594H65.8398C65.8398 77.7578 66.3008 76.8555 67.2227 76.1523C68.1445 75.4492 69.2969 75.0977 70.6797 75.0977C72.1641 75.0977 73.3203 75.418 74.1484 76.0586C74.9766 76.6914 75.3906 77.5977 75.3906 78.7773C75.3906 79.3477 75.2188 79.8711 74.875 80.3477C74.5312 80.8242 74.043 81.2031 73.4102 81.4844C74.8867 81.9844 75.625 82.9688 75.625 84.4375C75.625 85.6016 75.1758 86.5234 74.2773 87.2031C73.3789 87.8828 72.1797 88.2227 70.6797 88.2227C69.2188 88.2227 68.0117 87.8672 67.0586 87.1562C66.1133 86.4375 65.6406 85.4688 65.6406 84.25H67.7969C67.7969 84.8672 68.0703 85.3984 68.6172 85.8438C69.1719 86.2812 69.8594 86.5 70.6797 86.5C71.5078 86.5 72.1758 86.3086 72.6836 85.9258C73.1914 85.543 73.4453 85.0469 73.4453 84.4375C73.4453 83.7266 73.2305 83.2188 72.8008 82.9141C72.3789 82.6016 71.7188 82.4453 70.8203 82.4453H68.6523V80.6172H71.0078C72.4844 80.5781 73.2227 79.9688 73.2227 78.7891ZM80.8047 79.6914H84.0977C85.5352 79.707 86.6719 80.082 87.5078 80.8164C88.3438 81.5508 88.7617 82.5469 88.7617 83.8047C88.7617 85.0703 88.332 86.0859 87.4727 86.8516C86.6133 87.6172 85.457 88 84.0039 88H78.6367V75.3203H80.8047V79.6914ZM93.2852 88H91.1055V75.3203H93.2852V88ZM80.8047 81.4609V86.2305H84.0273C84.8398 86.2305 85.4688 86.0234 85.9141 85.6094C86.3594 85.1875 86.582 84.6133 86.582 83.8867C86.582 83.1836 86.3633 82.6094 85.9258 82.1641C85.4961 81.7109 84.8906 81.4766 84.1094 81.4609H80.8047Z" fill="black"/>
</svg>
