<svg class="menu-1" width="250" height="250" viewBox="0 0 250 250" fill="none" xmlns="http://www.w3.org/2000/svg">
    <path d="M61.2403 17.484C33.7613 33.7797 13.5648 59.9782 4.79822 90.6994C-3.96832 121.421 -0.639393 154.332 14.1014 182.676C28.8421 211.019 53.8757 232.643 84.0612 243.106C114.247 253.569 147.293 252.077 176.413 238.937C205.533 225.797 228.517 202.006 240.644 172.45C252.771 142.894 253.121 109.816 241.623 80.0095C230.124 50.2031 207.649 25.9306 178.814 12.1769C149.979 -1.57687 116.972 -3.76795 86.5714 6.05363L95.4099 33.4113C118.818 25.8487 144.234 27.5358 166.437 38.1262C188.64 48.7166 205.946 67.4064 214.799 90.3573C223.653 113.308 223.384 138.778 214.046 161.536C204.708 184.295 187.01 202.614 164.588 212.732C142.165 222.85 116.72 223.998 93.4771 215.942C70.2343 207.885 50.9584 191.235 39.608 169.41C28.2577 147.586 25.6944 122.244 32.4446 98.5885C39.1949 74.9333 54.7462 54.7603 75.905 42.2127L61.2403 17.484Z" fill="#C4C4C4"/>
    <path d="M134.387 135H131V121.945L126.957 123.199V120.445L134.023 117.914H134.387V135ZM148.168 135H144.781V121.945L140.738 123.199V120.445L147.805 117.914H148.168V135ZM161.949 135H158.562V121.945L154.52 123.199V120.445L161.586 117.914H161.949V135ZM175.73 135H172.344V121.945L168.301 123.199V120.445L175.367 117.914H175.73V135ZM189.512 135H186.125V121.945L182.082 123.199V120.445L189.148 117.914H189.512V135Z" fill="black"/>
    <path d="M75.9998 143.088L82.7794 121.996H69.2202L75.9998 143.088Z" fill="#C4C4C4"/>
    <path d="M85.8568 121.996L77.3037 148.606L100.712 121.996H85.8568Z" fill="#C4C4C4"/>
    <path d="M66.143 121.996H51.2876L74.696 148.606L66.143 121.996Z" fill="#C4C4C4"/>
    <path d="M101 119.066L95.234 106.992L87.4722 119.066H101Z" fill="#C4C4C4"/>
    <path d="M59.2217 105.394L67.211 117.822L75.2004 105.394H59.2217Z" fill="#C4C4C4"/>
    <path d="M76.7998 105.394L84.7892 117.822L92.7785 105.394H76.7998Z" fill="#C4C4C4"/>
    <path d="M69.894 119.066H82.106L76 109.568L69.894 119.066Z" fill="#C4C4C4"/>
    <path d="M56.766 106.992L51 119.066H64.5278L56.766 106.992Z" fill="#C4C4C4"/>
</svg>
