<svg width="250" height="250" viewBox="0 0 250 250" fill="none" xmlns="http://www.w3.org/2000/svg">
    <path d="M61.2403 17.484C33.7613 33.7797 13.5648 59.9782 4.79822 90.6994C-3.96832 121.421 -0.639393 154.332 14.1014 182.676C28.8421 211.019 53.8757 232.643 84.0612 243.106C114.247 253.569 147.293 252.077 176.413 238.937C205.533 225.797 228.517 202.006 240.644 172.45C252.771 142.894 253.121 109.816 241.623 80.0095C230.124 50.2031 207.649 25.9306 178.814 12.1769C149.979 -1.57687 116.972 -3.76795 86.5714 6.05363L95.4099 33.4113C118.818 25.8487 144.234 27.5358 166.437 38.1262C188.64 48.7166 205.946 67.4064 214.799 90.3573C223.653 113.308 223.384 138.778 214.046 161.536C204.708 184.295 187.01 202.614 164.588 212.732C142.165 222.85 116.72 223.998 93.4771 215.942C70.2343 207.885 50.9584 191.235 39.608 169.41C28.2577 147.586 25.6944 122.244 32.4446 98.5885C39.1949 74.9333 54.7462 54.7603 75.905 42.2127L61.2403 17.484Z" fill="#C4C4C4"/>
    <g clip-path="url(#clip0)">
        <path d="M64.7821 123.843C62.0364 123.843 59.8096 126.07 59.8096 128.816C59.8096 131.562 62.0364 133.788 64.7821 133.788C67.5277 133.788 69.7545 131.562 69.7545 128.816C69.7545 126.07 67.5277 123.843 64.7821 123.843Z" fill="#C4C4C4"/>
        <path d="M88.5202 109.229C86.3151 108.558 83.2775 108.18 80.1968 108.18C77.0836 108.18 74.1541 108.558 71.9706 109.229C69.9059 109.866 69.1816 110.591 69.1816 110.818C69.1925 110.828 69.2033 110.839 69.2033 110.85C69.2573 111.088 69.9167 111.834 72.2408 112.504C74.3919 113.131 77.2241 113.477 80.2076 113.477C83.2883 113.477 86.3259 113.088 88.5202 112.428C90.8768 111.715 91.3848 110.98 91.3848 110.828C91.3848 110.677 90.8768 109.942 88.5202 109.229Z" fill="#C4C4C4"/>
        <path d="M89.1581 114.471C86.7367 115.206 83.5695 115.606 80.2293 115.606C77.0404 115.606 74.0029 115.239 71.6572 114.558C70.8464 114.342 70.0681 114.039 69.3223 113.661L69.3979 116.709C70.6086 117.163 71.7545 117.812 72.7706 118.622C72.7922 118.633 72.8246 118.633 72.857 118.644C74.9325 119.174 77.5485 119.455 80.2185 119.455C83.2993 119.455 86.3368 119.076 88.5312 118.406C90.8769 117.693 91.3849 116.947 91.3849 116.806C91.3849 116.59 91.439 116.385 91.5579 116.201V113.498C90.7904 113.92 89.9797 114.255 89.1581 114.471Z" fill="#C4C4C4"/>
        <path d="M79.7538 133.983C79.7322 133.853 79.7322 133.734 79.7538 133.605C78.7485 133.594 77.7756 133.54 76.846 133.464C76.3487 134.75 75.6461 135.95 74.7705 137.02C76.446 137.301 78.1215 137.442 79.797 137.464L79.7538 133.983Z" fill="#C4C4C4"/>
        <path d="M75.3326 126.643C74.8462 124.308 73.6031 122.189 71.787 120.644C70.6736 119.671 69.3656 118.947 67.9604 118.514C66.9226 118.201 65.8525 118.039 64.7715 118.039C62.0907 118.039 59.5072 119.044 57.5182 120.849C53.1186 124.849 52.8051 131.67 56.8047 136.069C60.8043 140.469 67.6253 140.793 72.0248 136.783C74.2733 134.75 75.5596 131.853 75.5488 128.816C75.5488 128.092 75.4731 127.357 75.3326 126.643ZM64.7823 135.939C60.8476 135.939 57.6479 132.74 57.6479 128.805C57.6479 124.87 60.8368 121.671 64.7823 121.671C68.7171 121.681 71.9059 124.87 71.9167 128.805C71.9167 132.74 68.7171 135.939 64.7823 135.939Z" fill="#C4C4C4"/>
        <path d="M79.7324 131.432L79.6892 127.832C79.6676 127.756 79.646 127.681 79.6352 127.605C78.9541 127.594 78.2948 127.573 77.657 127.529C77.6894 127.962 77.711 128.383 77.711 128.805C77.711 129.648 77.6245 130.502 77.4624 131.335C78.1867 131.389 78.9541 131.421 79.7324 131.432Z" fill="#C4C4C4"/>
        <path d="M101.06 125.595C98.8655 124.924 95.8388 124.568 92.7472 124.568H92.6607C89.7637 124.568 87.0072 124.892 84.8885 125.486C82.7806 126.07 81.9699 126.73 81.7861 127.065C81.8186 127.162 81.8402 127.259 81.8402 127.357C82.0996 127.724 82.9752 128.362 85.0074 128.913C87.1261 129.486 89.8826 129.81 92.7472 129.81C95.828 129.81 98.7574 129.454 100.973 128.794C103.373 128.081 103.903 127.335 103.914 127.173V127.162C103.881 126.978 103.33 126.286 101.06 125.595Z" fill="#C4C4C4"/>
        <path d="M101.643 136.837C99.2221 137.572 96.0872 137.972 92.747 137.972C89.796 137.972 86.9314 137.647 84.6614 137.053C83.7317 136.826 82.8345 136.502 81.9697 136.08L82.0022 138.523L82.013 139.182C82.013 139.193 82.013 139.193 82.013 139.204C82.013 139.442 82.7048 140.155 84.7694 140.793C86.9422 141.452 89.85 141.82 92.974 141.82C96.0872 141.82 99.0059 141.442 101.211 140.761C103.514 140.047 103.989 139.301 103.989 139.15V135.853C103.341 136.275 102.433 136.599 101.643 136.837Z" fill="#C4C4C4"/>
        <path d="M101.568 130.87C99.1572 131.583 96.0332 131.972 92.7471 131.972C88.7259 131.972 84.4344 131.367 81.8833 130.037L81.9265 133.453C82.8562 134.491 86.8558 135.799 92.7363 135.799C95.8711 135.799 98.8113 135.431 101.027 134.761C103.351 134.048 103.849 133.313 103.849 133.161C103.849 132.945 103.989 132.751 104 132.588V129.886C103.222 130.308 102.411 130.632 101.568 130.87Z" fill="#C4C4C4"/>
        <path d="M89.1367 120.492C86.7153 121.227 83.5481 121.627 80.2078 121.627C78.5756 121.627 76.9325 121.519 75.311 121.314C76.1758 122.535 76.8352 123.897 77.2352 125.335C78.1648 125.411 79.1593 125.454 80.2078 125.454C80.2403 125.454 80.2619 125.454 80.2943 125.454C81.051 124.611 82.3806 123.919 84.2831 123.379C86.3045 122.806 88.8448 122.46 91.5473 122.384V119.498C90.7798 119.919 89.9798 120.255 89.1367 120.492Z" fill="#C4C4C4"/>
    </g>
    <path d="M134.387 135H131V121.945L126.957 123.199V120.445L134.023 117.914H134.387V135ZM148.168 135H144.781V121.945L140.738 123.199V120.445L147.805 117.914H148.168V135ZM161.949 135H158.562V121.945L154.52 123.199V120.445L161.586 117.914H161.949V135ZM175.73 135H172.344V121.945L168.301 123.199V120.445L175.367 117.914H175.73V135ZM189.512 135H186.125V121.945L182.082 123.199V120.445L189.148 117.914H189.512V135Z" fill="black"/>
    <defs>
        <clipPath id="clip0">
            <rect width="50" height="50" fill="white" transform="translate(54 100)"/>
        </clipPath>
    </defs>
</svg>
