<svg width="270" height="270" viewBox="0 0 270 270" fill="none" xmlns="http://www.w3.org/2000/svg">
    <circle cx="134.5" cy="135.5" r="90.5" fill="white"/>
    <path d="M270 135C270 209.558 209.558 270 135 270C60.4416 270 0 209.558 0 135C0 60.4416 60.4416 0 135 0C209.558 0 270 60.4416 270 135ZM20.25 135C20.25 198.375 71.6253 249.75 135 249.75C198.375 249.75 249.75 198.375 249.75 135C249.75 71.6253 198.375 20.25 135 20.25C71.6253 20.25 20.25 71.6253 20.25 135Z" fill="#C4C4C4"/>
    <path d="M259.875 135C265.467 135 270.039 130.46 269.62 124.884C268.379 108.358 264.102 92.1721 256.975 77.1463C248.399 59.0655 235.911 43.1174 220.414 30.4561C204.917 17.7949 186.799 8.7372 167.372 3.93864C151.227 -0.0491112 134.513 -1.01258 118.071 1.06565C112.523 1.76689 108.986 7.15281 110.101 12.6324C111.216 18.112 116.562 21.6031 122.118 20.9753C135.606 19.4515 149.286 20.3301 162.516 23.5978C179.029 27.6766 194.43 35.3756 207.602 46.1377C220.774 56.8998 231.389 70.4557 238.679 85.8244C244.519 98.1372 248.107 111.367 249.304 124.888C249.796 130.458 254.283 135 259.875 135Z" fill="#FEBE00"/>
    <g clip-path="url(#clip0)">
        <path d="M75.6447 104.751C72.6794 104.751 70.2744 107.156 70.2744 110.121C70.2744 113.087 72.6794 115.492 75.6447 115.492C78.61 115.492 81.015 113.087 81.015 110.121C81.015 107.156 78.61 104.751 75.6447 104.751Z" fill="#FEBE00"/>
        <path d="M101.282 88.9669C98.9006 88.2431 95.62 87.8345 92.2928 87.8345C88.9305 87.8345 85.7668 88.2431 83.4085 88.9669C81.1787 89.6557 80.3965 90.4379 80.3965 90.6831C80.4082 90.6947 80.4198 90.7064 80.4198 90.7181C80.4782 90.9749 81.1904 91.7805 83.7004 92.5043C86.0236 93.1814 89.0823 93.555 92.3045 93.555C95.6317 93.555 98.9123 93.1347 101.282 92.4226C103.827 91.652 104.376 90.8582 104.376 90.6947C104.376 90.5313 103.827 89.7374 101.282 88.9669Z" fill="#FEBE00"/>
        <path d="M101.971 94.6288C99.3555 95.4227 95.9349 95.8547 92.3274 95.8547C88.8835 95.8547 85.6029 95.4577 83.0695 94.7222C82.194 94.4887 81.3534 94.1619 80.5479 93.7532L80.6296 97.0455C81.9371 97.5358 83.1746 98.2363 84.272 99.1118C84.2954 99.1235 84.3304 99.1235 84.3654 99.1352C86.6069 99.7072 89.4322 100.011 92.3158 100.011C95.643 100.011 98.9235 99.6022 101.293 98.8784C103.827 98.1078 104.376 97.3023 104.376 97.1505C104.376 96.917 104.434 96.6952 104.562 96.4968V93.5781C103.733 94.0334 102.858 94.3953 101.971 94.6288Z" fill="#FEBE00"/>
        <path d="M91.8141 115.701C91.7907 115.561 91.7907 115.433 91.8141 115.293C90.7284 115.281 89.6777 115.223 88.6736 115.141C88.1366 116.53 87.3778 117.826 86.4321 118.982C88.2417 119.286 90.0512 119.437 91.8608 119.461L91.8141 115.701Z" fill="#FEBE00"/>
        <path d="M87.0392 107.774C86.5139 105.253 85.1713 102.964 83.21 101.295C82.0075 100.244 80.5949 99.4621 79.0772 98.9951C77.9565 98.6566 76.8007 98.4814 75.6332 98.4814C72.7379 98.4814 69.9477 99.5672 67.7996 101.517C63.0481 105.836 62.7095 113.203 67.0291 117.955C71.3487 122.706 78.7153 123.056 83.4668 118.725C85.8951 116.53 87.2844 113.401 87.2727 110.121C87.2727 109.339 87.191 108.545 87.0392 107.774ZM75.6449 117.814C71.3954 117.814 67.9397 114.359 67.9397 110.109C67.9397 105.86 71.3837 102.404 75.6449 102.404C79.8944 102.416 83.3384 105.86 83.3501 110.109C83.3501 114.359 79.8944 117.814 75.6449 117.814Z" fill="#FEBE00"/>
        <path d="M91.791 112.946L91.7443 109.059C91.721 108.977 91.6976 108.895 91.6859 108.814C90.9504 108.802 90.2383 108.779 89.5495 108.732C89.5845 109.199 89.6079 109.654 89.6079 110.11C89.6079 111.02 89.5145 111.942 89.3394 112.841C90.1215 112.9 90.9504 112.935 91.791 112.946Z" fill="#FEBE00"/>
        <path d="M114.824 106.642C112.455 105.918 109.186 105.533 105.847 105.533H105.753C102.625 105.533 99.6476 105.883 97.3594 106.526C95.0828 107.156 94.2073 107.868 94.0088 108.23C94.0438 108.335 94.0672 108.44 94.0672 108.545C94.3474 108.942 95.293 109.631 97.4878 110.226C99.776 110.845 102.753 111.195 105.847 111.195C109.174 111.195 112.338 110.81 114.731 110.098C117.323 109.327 117.895 108.522 117.907 108.347V108.335C117.872 108.137 117.276 107.389 114.824 106.642Z" fill="#FEBE00"/>
        <path d="M115.455 118.784C112.84 119.577 109.454 120.009 105.847 120.009C102.659 120.009 99.5656 119.659 97.114 119.017C96.11 118.772 95.141 118.422 94.207 117.966L94.2421 120.605L94.2537 121.317C94.2537 121.329 94.2537 121.329 94.2537 121.34C94.2537 121.597 95.0009 122.368 97.2307 123.056C99.5773 123.769 102.718 124.166 106.092 124.166C109.454 124.166 112.606 123.757 114.988 123.021C117.474 122.251 117.988 121.445 117.988 121.282V117.721C117.288 118.176 116.307 118.527 115.455 118.784Z" fill="#FEBE00"/>
        <path d="M115.373 112.339C112.77 113.11 109.396 113.53 105.847 113.53C101.504 113.53 96.869 112.876 94.1138 111.44L94.1605 115.129C95.1645 116.25 99.484 117.663 105.835 117.663C109.221 117.663 112.396 117.266 114.789 116.542C117.299 115.772 117.836 114.978 117.836 114.814C117.836 114.581 117.988 114.371 118 114.195V111.277C117.159 111.732 116.284 112.082 115.373 112.339Z" fill="#FEBE00"/>
        <path d="M101.947 101.132C99.3322 101.926 95.9116 102.357 92.3042 102.357C90.5413 102.357 88.7668 102.241 87.0156 102.019C87.9496 103.338 88.6617 104.809 89.0937 106.362C90.0977 106.444 91.1718 106.49 92.3042 106.49C92.3392 106.49 92.3626 106.49 92.3976 106.49C93.2148 105.58 94.6508 104.832 96.7055 104.249C98.8886 103.63 101.632 103.256 104.551 103.175V100.058C103.722 100.513 102.858 100.875 101.947 101.132Z" fill="#FEBE00"/>
    </g>
    <path d="M144.387 121H141V107.945L136.957 109.199V106.445L144.023 103.914H144.387V121ZM158.168 121H154.781V107.945L150.738 109.199V106.445L157.805 103.914H158.168V121ZM171.949 121H168.562V107.945L164.52 109.199V106.445L171.586 103.914H171.949V121ZM185.73 121H182.344V107.945L178.301 109.199V106.445L185.367 103.914H185.73V121ZM199.512 121H196.125V107.945L192.082 109.199V106.445L199.148 103.914H199.512V121Z" fill="black"/>
    <path d="M90.9997 188.375L98.3216 165.596H83.6777L90.9997 188.375Z" fill="#54B3E3"/>
    <path d="M101.645 165.596L92.4077 194.334L117.689 165.596H101.645Z" fill="#54B3E3"/>
    <path d="M80.3543 165.596H64.3105L89.5916 194.334L80.3543 165.596Z" fill="#54B3E3"/>
    <path d="M118 162.432L111.773 149.392L103.39 162.432H118Z" fill="#54B3E3"/>
    <path d="M72.8794 147.666L81.5079 161.088L90.1364 147.666H72.8794Z" fill="#54B3E3"/>
    <path d="M91.8638 147.666L100.492 161.088L109.121 147.666H91.8638Z" fill="#54B3E3"/>
    <path d="M84.4058 162.432H97.5946L91.0002 152.174L84.4058 162.432Z" fill="#54B3E3"/>
    <path d="M70.2273 149.392L64 162.432H78.6101L70.2273 149.392Z" fill="#54B3E3"/>
    <path d="M144.387 169H141V155.945L136.957 157.199V154.445L144.023 151.914H144.387V169ZM158.168 169H154.781V155.945L150.738 157.199V154.445L157.805 151.914H158.168V169ZM171.949 169H168.562V155.945L164.52 157.199V154.445L171.586 151.914H171.949V169ZM185.73 169H182.344V155.945L178.301 157.199V154.445L185.367 151.914H185.73V169ZM199.512 169H196.125V155.945L192.082 157.199V154.445L199.148 151.914H199.512V169Z" fill="black"/>
    <path d="M241 135C241 193.542 193.542 241 135 241C76.4578 241 29 193.542 29 135C29 76.4578 76.4578 29 135 29C193.542 29 241 76.4578 241 135ZM44.9 135C44.9 184.761 85.2391 225.1 135 225.1C184.761 225.1 225.1 184.761 225.1 135C225.1 85.2391 184.761 44.9 135 44.9C85.2391 44.9 44.9 85.2391 44.9 135Z" fill="#C4C4C4"/>
    <path d="M233.05 135C237.441 135 241.031 131.436 240.702 127.057C239.379 109.45 233.674 92.4068 224.051 77.5029C214.428 62.599 201.243 50.3852 185.741 41.9333C181.886 39.8316 177.159 41.6369 175.352 45.6385C173.545 49.6401 175.346 54.3185 179.173 56.471C191.898 63.6291 202.731 73.7948 210.693 86.1275C218.656 98.4601 223.463 112.516 224.75 127.06C225.136 131.434 228.659 135 233.05 135Z" fill="#54B3E3"/>
    <defs>
        <clipPath id="clip0">
            <rect width="54" height="54" fill="white" transform="translate(64 79)"/>
        </clipPath>
    </defs>
</svg>
