<svg width="39" height="39" viewBox="0 0 39 39" fill="none" xmlns="http://www.w3.org/2000/svg">
    <g filter="url(#filter0_d)">
        <circle cx="19.5" cy="15.5" r="15.5" fill="#5F94E2"/>
    </g>
    <path d="M35.2933 22.3475L31.8045 18.8586C30.5585 17.6126 28.4402 18.1111 27.9418 19.7308C27.568 20.8523 26.322 21.4753 25.2006 21.2261C22.7086 20.603 19.3444 17.3634 18.7214 14.7468C18.3476 13.6254 19.0952 12.3794 20.2166 12.0056C21.8364 11.5072 22.3348 9.38898 21.0888 8.14297L17.6 4.65415C16.6032 3.78195 15.108 3.78195 14.2358 4.65415L11.8684 7.02157C9.50094 9.51358 12.1176 16.1174 17.9738 21.9737C23.83 27.8299 30.4339 30.5712 32.9259 28.0791L35.2933 25.7117C36.1655 24.7149 36.1655 23.2197 35.2933 22.3475Z" fill="white"/>
    <defs>
        <filter id="filter0_d" x="0" y="0" width="39" height="39" filterUnits="userSpaceOnUse" color-interpolation-filters="sRGB">
            <feFlood flood-opacity="0" result="BackgroundImageFix"/>
            <feColorMatrix in="SourceAlpha" type="matrix" values="0 0 0 0 0 0 0 0 0 0 0 0 0 0 0 0 0 0 127 0"/>
            <feOffset dy="4"/>
            <feGaussianBlur stdDeviation="2"/>
            <feColorMatrix type="matrix" values="0 0 0 0 0 0 0 0 0 0 0 0 0 0 0 0 0 0 0.25 0"/>
            <feBlend mode="normal" in2="BackgroundImageFix" result="effect1_dropShadow"/>
            <feBlend mode="normal" in="SourceGraphic" in2="effect1_dropShadow" result="shape"/>
        </filter>
    </defs>
</svg>
