<svg width="106" height="106" viewBox="0 0 106 106" fill="none" xmlns="http://www.w3.org/2000/svg">
    <circle cx="53" cy="53" r="50" stroke="#08A652" stroke-width="5"/>
    <path d="M11.75 56.7501L86.5606 56.7501L57.9144 84.0351C56.4144 85.4638 56.3563 87.8376 57.785 89.3376C59.2119 90.8357 61.5856 90.8957 63.0875 89.4669L95.8025 58.3044C97.2181 56.8869 98 55.0044 98 53.0001C98 50.9976 97.2181 49.1132 95.7369 47.6338L63.0856 16.5351C62.36 15.8432 61.43 15.5001 60.5 15.5001C59.51 15.5001 58.52 15.8901 57.7831 16.6644C56.3544 18.1644 56.4125 20.5363 57.9125 21.9651L86.6788 49.2501L11.75 49.2501C9.68 49.2501 8 50.9301 8 53.0001C8 55.0701 9.68 56.7501 11.75 56.7501V56.7501Z" fill="#08A652"/>
</svg>
