<svg width="106" height="106" viewBox="0 0 106 106" fill="none" xmlns="http://www.w3.org/2000/svg">
    <circle cx="53" cy="53" r="50" stroke="#F7660B" stroke-width="5"/>
    <path d="M94.25 52.7509L19.4394 52.7509L48.0856 25.4659C49.5856 24.0372 49.6438 21.6634 48.215 20.1634C46.7881 18.6653 44.4144 18.6053 42.9125 20.034L10.1975 51.1965C8.78188 52.614 8.00001 54.4965 8.00001 56.5009C8.00001 58.5034 8.78188 60.3878 10.2631 61.8672L42.9144 92.9659C43.64 93.6578 44.57 94.0009 45.5 94.0009C46.49 94.0009 47.48 93.6109 48.2169 92.8365C49.6456 91.3365 49.5875 88.9647 48.0875 87.5359L19.3213 60.2509L94.25 60.2509C96.32 60.2509 98 58.5709 98 56.5009C98 54.4309 96.32 52.7509 94.25 52.7509V52.7509Z" fill="#F7660B"/>
</svg>
