<svg width="106" height="106" viewBox="0 0 106 106" fill="none" xmlns="http://www.w3.org/2000/svg">
    <circle cx="53" cy="53" r="50" stroke="#5F94E2" stroke-width="5"/>
    <path d="M52.9975 93C54.7234 93 56.1225 91.6009 56.1225 89.875C56.1225 88.1491 54.7234 86.75 52.9975 86.75C51.2716 86.75 49.8725 88.1491 49.8725 89.875C49.8725 91.6009 51.2716 93 52.9975 93Z" fill="#5F94E2"/>
    <path d="M77.528 37.3398C77.4252 23.9008 66.4605 13 52.9975 13C39.4709 13 28.4662 24.0047 28.4662 37.5312C28.4662 39.2572 29.8653 40.6562 31.5912 40.6562C33.3172 40.6562 34.7162 39.2572 34.7162 37.5312C34.7162 27.4509 42.9172 19.25 52.9975 19.25C63.0778 19.25 71.2787 27.4509 71.2787 37.5312C71.2787 37.5869 71.2802 37.6422 71.2831 37.6972C71.2198 44.9725 66.8727 51.5016 60.1706 54.363C53.9147 57.0339 49.8725 63.2184 49.8725 70.1191V77.375C49.8725 79.1009 51.2716 80.5 52.9975 80.5C54.7234 80.5 56.1225 79.1009 56.1225 77.375V70.1191C56.1225 65.7258 58.6747 61.7975 62.6247 60.1111C71.6839 56.2433 77.5361 47.38 77.5337 37.5305C77.5337 37.4664 77.5317 37.403 77.528 37.3398Z" fill="#5F94E2"/>
</svg>
