<svg width="106" height="106" viewBox="0 0 106 106" fill="none" xmlns="http://www.w3.org/2000/svg">
    <circle cx="53" cy="53" r="50" stroke="#5F94E2" stroke-width="5"/>
    <path d="M68.254 50.1243C66.9088 49.4848 65.5363 48.934 64.1397 48.4726C68.6628 45.0776 71.5941 39.6716 71.5941 33.5938C71.5941 23.3412 63.253 15 53.0003 15C42.7476 15 34.4066 23.3412 34.4066 33.5938C34.4066 39.6783 37.3444 45.0896 41.8759 48.4839C37.724 49.8508 33.8282 51.9778 30.4185 54.7824C24.1661 59.9254 19.8188 67.0989 18.1778 74.9817C17.6634 77.4516 18.2796 79.9886 19.868 81.9417C21.4486 83.8853 23.7924 85 26.2982 85H59.973C61.4832 85 62.7073 83.7758 62.7073 82.2656C62.7073 80.7554 61.4832 79.5312 59.973 79.5312H26.2982C25.1309 79.5312 24.4266 78.8797 24.1108 78.4914C23.5655 77.8208 23.3544 76.9478 23.5317 76.0962C26.3693 62.466 38.3918 52.5093 52.2754 52.1736C52.5159 52.1829 52.7575 52.1875 53.0003 52.1875C53.2455 52.1875 53.4895 52.1827 53.7323 52.1733C57.987 52.2731 62.079 53.2441 65.9063 55.0635C67.2703 55.7116 68.9014 55.1317 69.5497 53.7677C70.198 52.4038 69.6181 50.7726 68.254 50.1243ZM53.6672 46.7019C53.4453 46.698 53.223 46.6959 53.0003 46.6959C52.7796 46.6959 52.559 46.6981 52.3386 46.7022C45.4076 46.3564 39.8753 40.6091 39.8753 33.5938C39.8753 26.3565 45.7631 20.4688 53.0003 20.4688C60.2375 20.4688 66.1253 26.3565 66.1253 33.5938C66.1253 40.6073 60.5957 46.3536 53.6672 46.7019Z" fill="#5F94E2"/>
    <path d="M85.2656 69.2773H77.7461V61.7578C77.7461 60.2476 76.5219 59.0234 75.0117 59.0234C73.5015 59.0234 72.2773 60.2476 72.2773 61.7578V69.2773H64.7578C63.2476 69.2773 62.0234 70.5015 62.0234 72.0117C62.0234 73.5219 63.2476 74.7461 64.7578 74.7461H72.2773V82.2656C72.2773 83.7758 73.5015 85 75.0117 85C76.5219 85 77.7461 83.7758 77.7461 82.2656V74.7461H85.2656C86.7758 74.7461 88 73.5219 88 72.0117C88 70.5015 86.7758 69.2773 85.2656 69.2773Z" fill="#5F94E2"/>
</svg>
