<svg width="75" height="75" viewBox="0 0 75 75" fill="none" xmlns="http://www.w3.org/2000/svg">
    <path d="M42.2071 18.8281H30.4394C29.2259 18.8281 28.2421 19.8119 28.2421 21.0254V37.6562H25.7324C24.5189 37.6562 23.5352 38.64 23.5352 39.8535C23.5352 41.0669 24.5189 42.0507 25.7324 42.0507H28.2421V47.0703H25.7324C24.5189 47.0703 23.5352 48.0541 23.5352 49.2676C23.5352 50.4811 24.5189 51.4648 25.7324 51.4648H28.2421V56.3281C28.2421 57.5416 29.2259 58.5254 30.4394 58.5254C31.6529 58.5254 32.6367 57.5416 32.6367 56.3281V51.4648H42.2071C43.4206 51.4648 44.4043 50.4811 44.4043 49.2676C44.4043 48.0541 43.4206 47.0703 42.2071 47.0703H32.6367V42.0507H42.2071C48.6096 42.0507 53.8184 36.8419 53.8184 30.4394C53.8183 23.8786 48.4741 18.8281 42.2071 18.8281ZM42.2071 37.6562H32.6367V23.2227H42.2071C46.1624 23.2227 49.4239 26.4131 49.4239 30.4395C49.4238 34.4189 46.1865 37.6562 42.2071 37.6562Z" fill="#08A652"/>
    <path d="M37.5 0C16.8224 0 0 16.8224 0 37.5C0 58.1776 16.8224 75 37.5 75C58.1776 75 75 58.1776 75 37.5C75 16.8224 58.1776 0 37.5 0ZM37.5 70.6055C19.2456 70.6055 4.39453 55.7544 4.39453 37.5C4.39453 19.2456 19.2456 4.39453 37.5 4.39453C55.7544 4.39453 70.6055 19.2456 70.6055 37.5C70.6055 55.7544 55.7544 70.6055 37.5 70.6055Z" fill="#08A652"/>
</svg>
