<svg width="40" height="40" viewBox="0 0 40 40" fill="none" xmlns="http://www.w3.org/2000/svg">
    <circle cx="20" cy="20" r="19" stroke="#08A652" stroke-width="2"/>
    <path d="M24.6449 20.1254C24.5101 21.2264 24.015 22.2758 23.1994 23.0915C22.208 24.0835 20.8222 24.5504 19.082 24.4801C17.8615 24.4315 17.2978 24.7508 17.2052 24.8088C16.8314 25.1364 16.3568 25.3157 15.8558 25.3157C15.3079 25.3157 14.7929 25.1024 14.4056 24.7151C13.737 24.0465 13.6292 23.0153 14.0857 22.2295L14.4132 21.7104C14.5245 21.4391 14.6751 20.9036 14.64 20.0381C14.5702 18.2973 15.0372 16.9121 16.0286 15.9207C16.8408 15.1092 17.879 14.6065 19.0017 14.4723C19.1605 13.7088 19.5044 12.9945 20.0007 12.3945H8.2245C6.93074 12.3945 5.87781 13.4469 5.87781 14.7406V26.3768H30.3584V14.8227L27.3836 18.4684C26.684 19.3233 25.7125 19.9051 24.6449 20.1254V20.1254Z" fill="#08A652"/>
    <path d="M5.87787 28.8848C5.87787 30.1779 6.9308 31.2303 8.22456 31.2303H14.8937V33.2424H13.4155C12.9301 33.2424 12.5366 33.6359 12.5366 34.1213C12.5366 34.6067 12.9301 35.0002 13.4155 35.0002H22.8206C23.306 35.0002 23.6995 34.6067 23.6995 34.1213C23.6995 33.6359 23.306 33.2424 22.8206 33.2424H21.3424V31.2303H28.0117C29.3055 31.2303 30.3584 30.1779 30.3584 28.8848V28.1348H5.87781V28.8848H5.87787Z" fill="#08A652"/>
    <path d="M15.67 23.0373C15.6698 23.0374 15.6696 23.0376 15.6695 23.0378C15.6694 23.0378 15.6693 23.0379 15.6693 23.038L15.669 23.0382C15.6689 23.0383 15.6689 23.0384 15.6687 23.0385C15.6687 23.0387 15.6686 23.0387 15.6684 23.0388L15.6684 23.0389C15.6683 23.039 15.6682 23.039 15.6681 23.0392C15.6681 23.0392 15.6681 23.0392 15.668 23.0392C15.668 23.0393 15.6679 23.0394 15.6678 23.0395C15.6678 23.0395 15.6678 23.0395 15.6677 23.0396C15.6676 23.0396 15.6676 23.0397 15.6674 23.0399C15.6674 23.0399 15.6674 23.0399 15.6674 23.0399L15.6671 23.0402C15.556 23.1549 15.5571 23.3379 15.6704 23.4512C15.7276 23.5084 15.8026 23.537 15.8776 23.537C15.9519 23.537 16.0262 23.5089 16.0832 23.4527C16.1011 23.4357 16.9886 22.6152 19.175 22.7031C20.405 22.7527 21.3482 22.458 21.9785 21.8278C23.27 20.5362 23.27 18.4347 21.9785 17.1431C21.3528 16.5174 20.5209 16.1729 19.6361 16.1729C18.7513 16.1729 17.9194 16.5174 17.2938 17.1431C16.6635 17.7733 16.369 18.7166 16.4184 19.9466C16.5068 22.1448 15.6771 23.03 15.6704 23.0369C15.6701 23.0371 15.6701 23.0372 15.67 23.0373V23.0373Z" fill="#08A652"/>
    <path d="M24.5687 18.3178C25.1418 18.1461 25.658 17.8063 26.0429 17.3358L27.1659 15.9595L23.1654 11.959L21.7949 13.0784C21.3232 13.4627 20.9822 13.9784 20.8099 14.5514C21.7158 14.7641 22.5467 15.2252 23.2211 15.8997C23.9113 16.5899 24.3607 17.4307 24.5687 18.3178Z" fill="#08A652"/>
    <path d="M33.5941 5.52777C32.9396 4.87328 31.9048 4.82113 31.1876 5.40707L24.5338 10.8418L28.2831 14.5911L33.7154 7.93369C34.3007 7.21703 34.2486 6.18226 33.5941 5.52777V5.52777Z" fill="#08A652"/>
</svg>
