<svg width="42" height="42" viewBox="0 0 42 42" fill="none" xmlns="http://www.w3.org/2000/svg">
    <circle cx="21" cy="21" r="20" stroke="#08A652" stroke-width="2"/>
    <path d="M33.4981 12.1383C31.9705 10.7594 29.9647 10 27.8501 10C25.0437 10 22.4764 11.3692 21 13.5373C19.5235 11.3692 16.9562 10 14.1498 10C11.9661 10 9.91658 10.8066 8.37915 12.271C6.85996 13.7182 6.01512 15.6428 6.00016 17.6905C5.97748 20.7992 8.4331 24.5928 13.2987 28.9662C16.8443 32.1529 20.3378 34.4383 20.4848 34.5341C20.6385 34.6341 20.8193 34.6841 21 34.6841C21.1817 34.6841 21.3636 34.6336 21.5176 34.5325C21.6635 34.4367 25.1319 32.1515 28.6642 28.9651C33.5091 24.5947 35.9771 20.8049 35.9998 17.7008C36.0152 15.5839 35.1268 13.6084 33.4981 12.1383V12.1383ZM31.6165 18.4613C31.6145 18.4613 31.6127 18.4613 31.6106 18.4612C31.1264 18.4584 30.7365 18.1041 30.7397 17.6699C30.7459 16.8187 30.4003 16.0348 29.7666 15.4627C29.2337 14.9818 28.5531 14.717 27.8502 14.717C27.366 14.717 26.9735 14.365 26.9735 13.9308C26.9735 13.4966 27.366 13.1446 27.8502 13.1446C29.0237 13.1446 30.1459 13.5744 31.0104 14.3546C31.9758 15.226 32.5024 16.407 32.4931 17.6802C32.4899 18.1127 32.098 18.4613 31.6165 18.4613V18.4613Z" fill="#08A652"/>
</svg>
