<svg width="42" height="42" viewBox="0 0 42 42" fill="none" xmlns="http://www.w3.org/2000/svg">
    <circle cx="21" cy="21" r="20" stroke="#08A652" stroke-width="2"/>
    <path d="M28.1777 15.7852H13.7637C13.2783 15.7852 12.8848 16.1787 12.8848 16.6641V29.1316C12.8848 29.617 13.2783 30.0105 13.7637 30.0105H14.877V33.3633C14.877 34.8172 16.0598 36 17.5137 36C18.9676 36 20.1504 34.8172 20.1504 33.3633V30.0105H21.9082V33.3633C21.9082 34.8172 23.091 36 24.5449 36C25.9988 36 27.1816 34.8172 27.1816 33.3633V30.0105H28.1777C28.6631 30.0105 29.0566 29.617 29.0566 29.1316V16.6641C29.0566 16.1787 28.6631 15.7852 28.1777 15.7852Z" fill="#08A652"/>
    <path d="M32.6309 15.7852C31.177 15.7852 29.9941 16.968 29.9941 18.4219V23.6367C29.9941 25.0906 31.177 26.2734 32.6309 26.2734C34.0847 26.2734 35.2676 25.0906 35.2676 23.6367V18.4219C35.2676 16.968 34.0847 15.7852 32.6309 15.7852Z" fill="#08A652"/>
    <path d="M9.36914 15.7852C7.91525 15.7852 6.73242 16.968 6.73242 18.4219V23.6367C6.73242 25.0906 7.91525 26.2734 9.36914 26.2734C10.823 26.2734 12.0059 25.0906 12.0059 23.6367V18.4219C12.0059 16.968 10.823 15.7852 9.36914 15.7852Z" fill="#08A652"/>
    <path d="M28.8578 7.50035C29.201 7.15717 29.201 6.6007 28.8578 6.25746C28.5146 5.91422 27.9581 5.91422 27.6149 6.25746L26.0627 7.80967C24.6715 6.67887 22.899 6 20.9707 6C19.0723 6 17.3248 6.65795 15.9437 7.75734L14.4438 6.25746C14.1006 5.91422 13.5441 5.91422 13.2008 6.25746C12.8576 6.6007 12.8576 7.15717 13.2008 7.50041L14.6944 8.99402C13.5636 10.3852 12.8848 12.1577 12.8848 14.0859C12.8848 14.5713 13.2783 14.9648 13.7637 14.9648H28.1777C28.6631 14.9648 29.0566 14.5713 29.0566 14.0859C29.0566 12.1875 28.3987 10.4401 27.2993 9.05889L28.8578 7.50035Z" fill="#08A652"/>
</svg>
