<svg width="80" height="80" viewBox="0 0 80 80" fill="none" xmlns="http://www.w3.org/2000/svg">
    <g clip-path="url(#clip0)">
        <path d="M73.208 47.9023C72.5611 46.3024 70.7396 45.5291 69.1396 46.1763C67.5394 46.8232 66.7666 48.6446 67.4135 50.2447L71.094 59.3488L60.163 54.5302C59.3718 54.1815 58.4713 54.176 57.676 54.5154C53.9404 56.1093 49.9385 56.9174 45.7817 56.9174C29.0515 56.9174 17.8129 43.8182 17.8129 31.5837C17.8129 17.6147 30.3596 6.24999 45.7817 6.24999C61.2037 6.24999 73.7504 17.6147 73.7504 31.5837C73.7504 32.6735 73.6488 33.9785 73.4721 35.1638C73.2174 36.8709 74.3947 38.461 76.1018 38.7157C77.8089 38.971 79.3991 37.7931 79.6536 36.086C79.8772 34.5876 80.0004 32.9885 80.0004 31.5837C80.0004 23.0946 76.4057 15.1293 69.878 9.15514C63.4277 3.2514 54.8701 0 45.7817 0C36.6932 0 28.1357 3.2514 21.6853 9.15498C15.8522 14.4937 12.3634 21.4231 11.6867 28.8948C4.34968 33.7535 0.0004704 41.5393 0.0004704 49.9257C0.0004704 55.1644 1.65094 60.135 4.79265 64.4127L0.228283 75.7036C-0.248435 76.8827 0.0370328 78.2331 0.950313 79.1184C1.54547 79.6956 2.32969 80 3.12609 80C3.55156 79.9998 3.98062 79.9131 4.38593 79.7344L17.5467 73.9328C20.8573 75.1652 24.3568 75.7891 27.969 75.7891C28.0471 75.7891 28.1239 75.783 28.2006 75.7774C33.4251 75.7378 38.5043 74.3636 42.9034 71.7919C46.8437 69.4881 50.0849 66.3235 52.3573 62.5861C54.5759 62.1877 56.7443 61.5858 58.849 60.7813L75.6147 68.1719C76.0202 68.3505 76.4491 68.4375 76.8746 68.4375C77.671 68.4374 78.4554 68.133 79.0505 67.556C79.9638 66.6707 80.2493 65.3203 79.7725 64.1411L73.208 47.9023ZM27.9693 69.5311C27.9267 69.5311 27.8851 69.5358 27.8428 69.5375C24.6518 69.5213 21.5806 68.8941 18.7123 67.6703C17.9172 67.3308 17.0167 67.3363 16.2254 67.6852L8.90718 70.9111L11.268 65.0713C11.7044 63.9918 11.5042 62.7589 10.7489 61.8729C7.80593 58.4202 6.25046 54.2891 6.25046 49.9257C6.25046 44.9318 8.35124 40.2001 12.0269 36.6123C13.1712 42.8505 16.4001 48.818 21.2709 53.5058C27.332 59.3391 35.3492 62.7185 44.0062 63.1253C39.9418 67.1261 34.1256 69.5311 27.9693 69.5311Z" fill="white"/>
        <path d="M45.6251 34.8437C47.351 34.8437 48.7501 33.4446 48.7501 31.7187C48.7501 29.9928 47.351 28.5937 45.6251 28.5937C43.8992 28.5937 42.5001 29.9928 42.5001 31.7187C42.5001 33.4446 43.8992 34.8437 45.6251 34.8437Z" fill="white"/>
        <path d="M58.1251 34.8437C59.851 34.8437 61.2501 33.4446 61.2501 31.7187C61.2501 29.9928 59.851 28.5937 58.1251 28.5937C56.3992 28.5937 55.0001 29.9928 55.0001 31.7187C55.0001 33.4446 56.3992 34.8437 58.1251 34.8437Z" fill="white"/>
        <path d="M33.1251 34.8437C34.851 34.8437 36.2501 33.4446 36.2501 31.7187C36.2501 29.9928 34.851 28.5937 33.1251 28.5937C31.3992 28.5937 30.0001 29.9928 30.0001 31.7187C30.0001 33.4446 31.3992 34.8437 33.1251 34.8437Z" fill="white"/>
    </g>
    <defs>
        <clipPath id="clip0">
            <rect width="80" height="80" fill="white"/>
        </clipPath>
    </defs>
</svg>
