<svg width="80" height="80" viewBox="0 0 80 80" fill="none" xmlns="http://www.w3.org/2000/svg">
    <path d="M40 20.8765C29.4556 20.8765 20.8765 29.4556 20.8765 40C20.8765 50.5444 29.4556 59.1235 40 59.1235C50.5444 59.1235 59.1235 50.5444 59.1235 40C59.1235 29.4556 50.5444 20.8765 40 20.8765ZM40 54.3427C32.0917 54.3427 25.6573 47.9083 25.6573 40C25.6573 32.0917 32.0917 25.6573 40 25.6573C47.9083 25.6573 54.3427 32.0917 54.3427 40C54.3427 47.9083 47.9083 54.3427 40 54.3427V54.3427Z" fill="white"/>
    <path d="M78.1177 30.8911L71.969 29.5544C71.4343 27.9175 70.7721 26.3208 69.9902 24.7827L73.3942 19.4879C74.0021 18.5419 73.8684 17.2998 73.0737 16.5051L63.4949 6.92627C62.7002 6.13159 61.4581 5.99792 60.5121 6.60583L55.2173 10.0098C53.6792 9.22791 52.0825 8.56567 50.4456 8.03101L49.1089 1.88232C48.8702 0.783691 47.8973 0 46.7731 0H33.2269C32.1027 0 31.1298 0.783691 30.8911 1.88232L29.5544 8.03101C27.9175 8.56567 26.3208 9.22791 24.7827 10.0098L19.4879 6.60583C18.5419 5.99792 17.2998 6.13159 16.5051 6.92627L6.92627 16.5051C6.13159 17.2998 5.99792 18.5419 6.60583 19.4879L10.0098 24.7827C9.22791 26.3208 8.56567 27.9175 8.03101 29.5544L1.88232 30.8911C0.783691 31.1304 0 32.1027 0 33.2269V46.7731C0 47.8973 0.783691 48.8696 1.88232 49.1089L8.03101 50.4456C8.56567 52.0825 9.22791 53.6792 10.0098 55.2173L6.60583 60.5121C5.99792 61.4581 6.13159 62.7002 6.92627 63.4949L16.5051 73.0737C17.2998 73.8684 18.5419 74.0021 19.4879 73.3942L24.7827 69.9902C26.3208 70.7721 27.9175 71.4343 29.5544 71.969L30.8911 78.1177C31.1298 79.2163 32.1027 80 33.2269 80H46.7731C47.8973 80 48.8702 79.2163 49.1089 78.1177L50.4456 71.969C52.0825 71.4343 53.6792 70.7721 55.2173 69.9902L60.5121 73.3942C61.4581 74.0021 62.7002 73.869 63.4949 73.0737L73.0737 63.4949C73.8684 62.7002 74.0021 61.4581 73.3942 60.5121L69.9902 55.2173C70.7721 53.6792 71.4343 52.0825 71.969 50.4456L78.1177 49.1089C79.2163 48.8696 80 47.8973 80 46.7731V33.2269C80 32.1027 79.2163 31.1304 78.1177 30.8911V30.8911ZM75.2191 44.8462L69.5813 46.0718C68.7152 46.2604 68.0243 46.9122 67.7863 47.7655C67.1667 49.9878 66.2756 52.1368 65.1379 54.1528C64.7021 54.9249 64.729 55.8746 65.2087 56.6205L68.3307 61.4764L61.4771 68.3307L56.6205 65.2087C55.8746 64.729 54.9249 64.7021 54.1534 65.1379C52.1368 66.2756 49.9878 67.1667 47.7655 67.7863C46.9122 68.0243 46.2604 68.7152 46.0718 69.5813L44.8462 75.2191H35.1538L33.9282 69.5813C33.7396 68.7152 33.0878 68.0243 32.2345 67.7863C30.0122 67.1667 27.8632 66.2756 25.8472 65.1379C25.0751 64.7021 24.1254 64.7296 23.3795 65.2087L18.5236 68.3307L11.6699 61.4764L14.7913 56.6205C15.271 55.8746 15.2985 54.9249 14.8627 54.1528C13.725 52.1368 12.8339 49.9878 12.2137 47.7655C11.9757 46.9122 11.2854 46.2604 10.4193 46.0718L4.78088 44.8462V35.1538L10.4187 33.9282C11.2848 33.7396 11.9757 33.0878 12.2137 32.2345C12.8333 30.0122 13.7244 27.8632 14.8621 25.8472C15.2979 25.0751 15.271 24.1254 14.7913 23.3795L11.6693 18.5236L18.5229 11.6693L23.3795 14.7913C24.1254 15.271 25.0751 15.2979 25.8466 14.8621C27.8632 13.7244 30.0122 12.8333 32.2345 12.2137C33.0878 11.9757 33.7396 11.2848 33.9282 10.4187L35.1538 4.78088H44.8462L46.0718 10.4187C46.2604 11.2848 46.9122 11.9757 47.7655 12.2137C49.9878 12.8333 52.1368 13.7244 54.1528 14.8621C54.9249 15.2979 55.8746 15.2704 56.6205 14.7913L61.4764 11.6693L68.3301 18.5236L65.2087 23.3795C64.729 24.1254 64.7015 25.0751 65.1373 25.8472C66.2756 27.8632 67.1661 30.0122 67.7863 32.2345C68.0243 33.0878 68.7146 33.7396 69.5807 33.9282L75.2191 35.1538V44.8462Z" fill="white"/>
</svg>
