<svg width="80" height="80" viewBox="0 0 80 80" fill="none" xmlns="http://www.w3.org/2000/svg">
    <g clip-path="url(#clip0)">
        <path d="M69.782 19.4362L51.0325 0.686719C50.5948 0.248906 49.9975 0 49.375 0H16.5625C12.6855 0 9.53125 3.15422 9.53125 7.03125V72.9688C9.53125 76.8458 12.6855 80 16.5625 80H63.4375C67.3145 80 70.4688 76.8458 70.4688 72.9688V21.0938C70.4688 20.4547 70.2005 19.8545 69.782 19.4362ZM51.7188 8.00203L62.4667 18.75H54.0625C52.7702 18.75 51.7188 17.6986 51.7188 16.4062V8.00203ZM63.4375 75.3125H16.5625C15.2702 75.3125 14.2188 74.2611 14.2188 72.9688V7.03125C14.2188 5.73891 15.2702 4.6875 16.5625 4.6875H47.0312V16.4062C47.0312 20.2833 50.1855 23.4375 54.0625 23.4375H65.7812V72.9688C65.7812 74.2611 64.7298 75.3125 63.4375 75.3125Z" fill="white"/>
        <path d="M54.0625 33.125H25.9375C24.6431 33.125 23.5938 34.1744 23.5938 35.4688C23.5938 36.7631 24.6431 37.8125 25.9375 37.8125H54.0625C55.3569 37.8125 56.4062 36.7631 56.4062 35.4688C56.4062 34.1744 55.3569 33.125 54.0625 33.125Z" fill="white"/>
        <path d="M54.0625 42.5H25.9375C24.6431 42.5 23.5938 43.5494 23.5938 44.8438C23.5938 46.1381 24.6431 47.1875 25.9375 47.1875H54.0625C55.3569 47.1875 56.4062 46.1381 56.4062 44.8438C56.4062 43.5494 55.3569 42.5 54.0625 42.5Z" fill="white"/>
        <path d="M54.0625 51.875H25.9375C24.6431 51.875 23.5938 52.9244 23.5938 54.2188C23.5938 55.5131 24.6431 56.5625 25.9375 56.5625H54.0625C55.3569 56.5625 56.4062 55.5131 56.4062 54.2188C56.4062 52.9244 55.3569 51.875 54.0625 51.875Z" fill="white"/>
        <path d="M44.6875 61.25H25.9375C24.6431 61.25 23.5938 62.2994 23.5938 63.5938C23.5938 64.8881 24.6431 65.9375 25.9375 65.9375H44.6875C45.9819 65.9375 47.0312 64.8881 47.0312 63.5938C47.0312 62.2994 45.9819 61.25 44.6875 61.25Z" fill="white"/>
    </g>
    <defs>
        <clipPath id="clip0">
            <rect width="80" height="80" fill="white"/>
        </clipPath>
    </defs>
</svg>
