<svg width="80" height="80" viewBox="0 0 80 80" fill="none" xmlns="http://www.w3.org/2000/svg">
    <path d="M40 80C29.3156 80 19.2708 75.8394 11.7156 68.2844C4.16047 60.7294 0 50.6844 0 40C0 29.3156 4.16063 19.2708 11.7156 11.7156C19.2706 4.16047 29.3156 0 40 0C50.6844 0 60.7292 4.16063 68.2844 11.7156C75.8395 19.2706 80 29.3156 80 40C80 50.6844 75.8394 60.7292 68.2844 68.2844C60.7294 75.8395 50.6844 80 40 80V80ZM40 5C20.7009 5 5 20.7009 5 40C5 59.2991 20.7009 75 40 75C59.2991 75 75 59.2991 75 40C75 20.7009 59.2991 5 40 5Z" fill="white"/>
    <path d="M40 57.5C38.6194 57.5 37.5 56.3806 37.5 55C37.5 48.6897 39.9573 42.7572 44.4195 38.295C47.212 35.5023 48.75 31.7895 48.75 27.8402C48.75 23.517 45.233 20 40.9098 20H40.3402C36.017 20 32.5 23.517 32.5 27.8402V28.75C32.5 30.1306 31.3806 31.25 30 31.25C28.6194 31.25 27.5 30.1306 27.5 28.75V27.8402C27.5 20.76 33.26 15 40.3402 15H40.9098C47.99 15 53.75 20.76 53.75 27.8402C53.75 33.125 51.692 38.0936 47.955 41.8306C44.4372 45.3483 42.5 50.0253 42.5 55C42.5 56.3806 41.3806 57.5 40 57.5V57.5Z" fill="white"/>
    <path d="M40.0032 67.5C38.6226 67.5 37.5024 66.3806 37.5024 65C37.5024 63.6194 38.6209 62.5 40.0017 62.5H40.0032C41.3838 62.5 42.5032 63.6194 42.5032 65C42.5032 66.3806 41.3838 67.5 40.0032 67.5Z" fill="white"/>
</svg>
