<svg width="140" height="140" viewBox="0 0 140 140" fill="none" xmlns="http://www.w3.org/2000/svg">
    <circle cx="70" cy="70" r="55" fill="#C4C4C4"/>
    <path d="M94.0576 94.5182C93.9317 86.4526 91.4189 79.1187 86.9514 73.8088C82.5098 68.5314 76.4903 65.625 70 65.625C63.5097 65.625 57.4903 68.5314 53.0487 73.8088C48.5854 79.1131 46.0742 86.4367 45.943 94.4923C48.4668 95.7566 58.9108 100.625 70 100.625C81.9914 100.625 91.7171 95.7852 94.0576 94.5182V94.5182Z" fill="white"/>
    <path d="M70 63.4375C76.6447 63.4375 82.0312 58.0509 82.0312 51.4062C82.0312 44.7616 76.6447 39.375 70 39.375C63.3553 39.375 57.9688 44.7616 57.9688 51.4062C57.9688 58.0509 63.3553 63.4375 70 63.4375Z" fill="white"/>
    <path d="M140 70C140 108.66 108.66 140 70 140C31.3401 140 0 108.66 0 70C0 31.3401 31.3401 0 70 0C108.66 0 140 31.3401 140 70ZM7 70C7 104.794 35.2061 133 70 133C104.794 133 133 104.794 133 70C133 35.2061 104.794 7 70 7C35.2061 7 7 35.2061 7 70Z" fill="#95C9F8"/>
</svg>
