<svg width="385" height="364" viewBox="0 0 385 364" fill="none" xmlns="http://www.w3.org/2000/svg">
    <circle cx="166.5" cy="218.5" r="145.5" fill="#C4C4C4"/>
    <path d="M301.701 324.131C306.892 328.186 314.424 327.285 318.134 321.842C343.145 285.146 354.077 240.482 348.632 196.137C342.701 147.833 317.824 103.863 279.474 73.9C241.124 43.9375 192.441 30.4367 144.137 36.3678C99.7916 41.8127 59.0993 63.2252 29.5442 96.371C25.1602 101.288 26.1081 108.814 31.299 112.869V112.869C36.49 116.925 43.9539 115.97 48.3854 111.096C74.009 82.9151 108.98 64.7187 147.044 60.045C189.069 54.885 231.423 66.6306 264.787 92.698C298.152 118.765 319.795 157.019 324.955 199.044C329.629 237.109 320.433 275.443 299.288 307.123C295.631 312.602 296.51 320.075 301.701 324.131V324.131Z" fill="#08A652"/>
    <path d="M301.701 324.131C306.892 328.186 314.423 327.286 318.133 321.842C337.005 294.152 347.979 261.751 349.747 228.136C351.724 190.541 342.09 153.248 322.151 121.314C302.212 89.3811 272.934 64.3531 238.288 49.6251C207.31 36.4563 173.38 32.0919 140.215 36.8921C133.696 37.8358 129.581 44.2074 130.946 50.6518V50.6518C132.311 57.0962 138.64 61.1668 145.168 60.2865C173.531 56.462 202.482 60.3251 228.956 71.5788C259.098 84.3922 284.57 106.167 301.916 133.949C319.263 161.731 327.645 194.176 325.925 226.883C324.414 255.61 315.176 283.317 299.288 307.123C295.631 312.602 296.51 320.075 301.701 324.131V324.131Z" fill="#FEBE00"/>
    <path d="M301.701 324.131C306.892 328.186 314.423 327.286 318.133 321.843C333.958 298.624 344.27 272.032 348.205 244.103C352.696 212.229 348.724 179.734 336.687 149.881C324.65 120.027 304.972 93.8653 279.628 74.0208C257.421 56.6323 231.548 44.6305 204.044 38.8817C197.596 37.5339 191.546 42.1095 190.62 48.6314V48.6314C189.694 55.1534 194.245 61.1464 200.679 62.5567C224.043 67.6773 246.01 77.9951 264.922 92.8031C286.971 110.068 304.091 132.829 314.563 158.801C325.035 184.774 328.491 213.044 324.583 240.775C321.232 264.559 312.565 287.228 299.288 307.123C295.631 312.602 296.51 320.075 301.701 324.131V324.131Z" fill="#C4C4C4"/>
    <path class="par1" d="M301.701 324.131C306.892 328.186 314.423 327.286 318.133 321.843C331.769 301.834 341.334 279.29 346.232 255.497C351.932 227.802 351.156 199.165 343.963 171.821C336.771 144.476 323.356 119.163 304.767 97.8582C288.796 79.5541 269.377 64.6335 247.661 53.9241C241.753 51.0106 234.753 53.9326 232.23 60.0174V60.0174C229.706 66.1022 232.618 73.0407 238.497 76.0115C256.83 85.275 273.239 98.0078 286.792 113.542C302.965 132.077 314.636 154.099 320.893 177.889C327.151 201.679 327.826 226.593 322.867 250.687C318.71 270.879 310.69 290.037 299.288 307.123C295.631 312.602 296.51 320.075 301.701 324.131V324.131Z" fill="#54B3E3"/>
    <path d="M327.489 344.278C333.67 349.107 342.637 348.036 347.055 341.554C360.508 321.814 370.652 299.973 377.053 276.892C384.721 249.241 386.868 220.351 383.371 191.872C379.874 163.392 370.802 135.879 356.673 110.905C342.543 85.9316 323.633 63.9853 301.022 46.3196C278.411 28.654 252.542 15.6148 224.892 7.94674C197.241 0.278653 168.351 -1.86823 139.872 1.62867C111.392 5.12557 83.8793 14.1978 58.9054 28.3273C38.058 40.1222 19.3202 55.2485 3.42115 73.0781C-1.79928 78.9323 -0.669649 87.8928 5.51137 92.7219V92.7219C11.6924 97.551 20.5798 96.4142 25.8569 90.6109C39.4208 75.6942 55.2926 63.0074 72.8927 53.0497C94.62 40.7571 118.556 32.8642 143.333 29.8219C168.111 26.7796 193.245 28.6474 217.301 35.3187C241.356 41.9899 263.863 53.3339 283.534 68.7031C303.206 84.0722 319.658 103.166 331.95 124.893C344.243 146.62 352.136 170.556 355.178 195.333C358.22 220.111 356.353 245.245 349.681 269.301C344.277 288.787 335.807 307.257 324.615 324.026C320.261 330.551 321.308 339.449 327.489 344.278V344.278Z" fill="#C4C4C4"/>
    <path class="par2" d="M327.489 344.278C333.67 349.107 342.637 348.035 347.055 341.554C371.615 305.519 384.894 262.853 384.999 219.028C385.117 170.456 369.047 123.23 339.328 84.8112C309.61 46.3922 267.937 18.9707 220.895 6.87895C178.449 -4.03113 133.816 -1.89986 92.7653 12.8169C85.3816 15.464 82.0906 23.8747 85.2116 31.0709V31.0709C88.3326 38.2671 96.6831 41.5162 104.092 38.941C139.325 26.6949 177.495 25.052 213.823 34.3897C254.75 44.9095 291.005 68.7662 316.86 102.191C342.716 135.615 356.697 176.702 356.594 218.959C356.504 256.468 345.322 293.001 324.615 324.026C320.261 330.55 321.308 339.449 327.489 344.278V344.278Z" fill="#08A652"/>
    <path d="M221.833 274.892C221.543 256.341 215.764 239.473 205.488 227.26C195.273 215.122 181.428 208.438 166.5 208.438C151.572 208.438 137.728 215.122 127.512 227.26C117.246 239.46 111.471 256.305 111.169 274.832C116.974 277.74 140.995 288.938 166.5 288.938C194.08 288.938 216.449 277.806 221.833 274.892V274.892Z" fill="white"/>
    <path d="M166.5 203.406C181.783 203.406 194.172 191.017 194.172 175.734C194.172 160.452 181.783 148.062 166.5 148.062C151.217 148.062 138.828 160.452 138.828 175.734C138.828 191.017 151.217 203.406 166.5 203.406Z" fill="white"/>
</svg>
