<svg width="141" height="140" viewBox="0 0 141 140" fill="none" xmlns="http://www.w3.org/2000/svg">
    <circle cx="70" cy="70" r="55" fill="#C4C4C4"/>
    <path d="M94.0576 94.5182C93.9317 86.4526 91.4189 79.1187 86.9514 73.8088C82.5098 68.5314 76.4903 65.625 70 65.625C63.5097 65.625 57.4903 68.5314 53.0487 73.8088C48.5854 79.1131 46.0742 86.4367 45.943 94.4923C48.4668 95.7566 58.9108 100.625 70 100.625C81.9914 100.625 91.7171 95.7852 94.0576 94.5182Z" fill="white"/>
    <path d="M70 63.4375C76.6447 63.4375 82.0312 58.0509 82.0312 51.4062C82.0312 44.7616 76.6447 39.375 70 39.375C63.3553 39.375 57.9688 44.7616 57.9688 51.4062C57.9688 58.0509 63.3553 63.4375 70 63.4375Z" fill="white"/>
    <path d="M103.326 132.102C114.45 126.095 123.74 117.187 130.208 106.325C136.676 95.4624 140.082 83.0511 140.064 70.4087L133.064 70.4188C133.08 81.797 130.015 92.9672 124.193 102.743C118.372 112.519 110.012 120.537 100 125.943L103.326 132.102Z" fill="#5F94E2"/>
    <path d="M140 70C140 54.6711 134.968 39.7659 125.677 27.5734C116.387 15.3809 103.351 6.57514 88.571 2.50838C73.7913 -1.55838 58.0854 -0.661292 43.8649 5.06188C29.6445 10.7851 17.6958 21.0179 9.85375 34.189C2.01169 47.3601 -1.29016 62.7412 0.455255 77.9705C2.20067 93.1997 8.89683 107.435 19.5155 118.49C30.1341 129.546 44.0881 136.81 59.2347 139.167C74.3812 141.525 89.8829 138.845 103.359 131.54L100.023 125.386C87.8946 131.961 73.9431 134.372 60.3112 132.251C46.6793 130.129 34.1207 123.591 24.5639 113.641C15.0071 103.691 8.9806 90.8797 7.40973 77.1734C5.83886 63.4671 8.81052 49.6241 15.8684 37.7701C22.9262 25.9161 33.68 16.7066 46.4785 11.5557C59.2769 6.40484 73.4122 5.59746 86.7139 9.25754C100.016 12.9176 111.748 20.8428 120.11 31.8161C128.471 42.7893 133 56.204 133 70H140Z" fill="#C4C4C4"/>
</svg>
