<svg width="140" height="139" viewBox="0 0 140 139" fill="none" xmlns="http://www.w3.org/2000/svg">
    <circle cx="69" cy="70" r="55" fill="#C4C4C4"/>
    <path d="M93.0576 94.5182C92.9317 86.4526 90.4189 79.1187 85.9514 73.8088C81.5098 68.5314 75.4903 65.625 69 65.625C62.5097 65.625 56.4903 68.5314 52.0487 73.8088C47.5854 79.1131 45.0742 86.4367 44.943 94.4923C47.4668 95.7566 57.9108 100.625 69 100.625C80.9914 100.625 90.7171 95.7852 93.0576 94.5182Z" fill="white"/>
    <path d="M69 63.4375C75.6447 63.4375 81.0312 58.0509 81.0312 51.4062C81.0312 44.7616 75.6447 39.375 69 39.375C62.3553 39.375 56.9688 44.7616 56.9688 51.4062C56.9688 58.0509 62.3553 63.4375 69 63.4375Z" fill="white"/>
    <path d="M140 70C140 60.8075 138.189 51.705 134.672 43.2122C131.154 34.7194 125.998 27.0026 119.497 20.5025L114.548 25.4523C120.398 31.3024 125.038 38.2474 128.204 45.8909C131.37 53.5345 133 61.7267 133 70H140Z" fill="#C4C4C4"/>
    <path d="M119.497 20.5025C109.827 10.8325 97.5367 4.20679 84.1433 1.4437C70.7499 -1.31939 56.8405 -0.0988275 44.133 4.95464C31.4255 10.0081 20.4766 18.6731 12.6385 29.8795C4.80039 41.0858 0.416484 54.3427 0.0282183 68.0126L7.0254 68.2113C7.37484 55.9084 11.3204 43.9773 18.3746 33.8915C25.4289 23.8058 35.283 16.0073 46.7197 11.4592C58.1565 6.91106 70.6749 5.81255 82.729 8.29933C94.7831 10.7861 105.845 16.7493 114.548 25.4523L119.497 20.5025Z" fill="#08A652"/>
    <path d="M0.26439 62.9218C-0.566665 72.4565 0.566377 82.0604 3.5935 91.1399C6.62062 100.219 11.4775 108.582 17.8641 115.71C24.2506 122.839 32.0311 128.582 40.7248 132.584C49.4185 136.587 58.8406 138.764 68.409 138.982C77.9774 139.199 87.4888 137.452 96.3554 133.849C105.222 130.246 113.255 124.862 119.959 118.031C126.663 111.2 131.895 103.068 135.332 94.1349C138.768 85.2023 140.337 75.6598 139.94 66.0972L132.946 66.3875C133.303 74.9939 131.892 83.5821 128.799 91.6214C125.706 99.6608 120.997 106.98 114.963 113.128C108.93 119.276 101.7 124.121 93.7199 127.364C85.7399 130.607 77.1797 132.18 68.5681 131.984C59.9566 131.788 51.4766 129.828 43.6523 126.226C35.828 122.623 28.8255 117.455 23.0777 111.039C17.3298 104.624 12.9586 97.0975 10.2342 88.9259C7.50974 80.7543 6.49 72.1109 7.23795 63.5296L0.26439 62.9218Z" fill="#FF8A22"/>
</svg>
