<svg width="149" height="149" viewBox="0 0 149 149" fill="none" xmlns="http://www.w3.org/2000/svg">
    <circle cx="74.5" cy="74.5" r="74.5" fill="#C4C4C4"/>
    <path d="M99.0576 99.5182C98.9317 91.4526 96.4189 84.1187 91.9514 78.8088C87.5098 73.5314 81.4903 70.625 75 70.625C68.5097 70.625 62.4903 73.5314 58.0487 78.8088C53.5854 84.1131 51.0742 91.4367 50.943 99.4923C53.4668 100.757 63.9108 105.625 75 105.625C86.9914 105.625 96.7171 100.785 99.0576 99.5182Z" fill="white"/>
    <path d="M75 68.4375C81.6447 68.4375 87.0312 63.0509 87.0312 56.4062C87.0312 49.7616 81.6447 44.375 75 44.375C68.3553 44.375 62.9688 49.7616 62.9688 56.4062C62.9688 63.0509 68.3553 68.4375 75 68.4375Z" fill="white"/>
</svg>
