<svg width="48" height="39" viewBox="0 0 48 39" fill="none" xmlns="http://www.w3.org/2000/svg">
    <g filter="url(#filter0_d)">
        <circle cx="19.5" cy="15.5" r="15.5" fill="#5F94E2"/>
    </g>
    <path d="M47.4249 28.2984C47.3071 28.1012 46.5786 26.5183 43.0731 23.2648C39.4033 19.8579 39.8963 20.4111 44.3165 14.5202C47.0086 10.9326 48.0849 8.74163 47.748 7.80501C47.4276 6.91221 45.4475 7.14773 45.4475 7.14773L38.8638 7.18607C38.8638 7.18607 38.3763 7.12035 38.0121 7.3367C37.6588 7.55032 37.4315 8.04327 37.4315 8.04327C37.4315 8.04327 36.388 10.8203 34.9968 13.181C32.0637 18.1626 30.8888 18.4255 30.4095 18.1161C29.2949 17.3958 29.5742 15.2186 29.5742 13.674C29.5742 8.8457 30.3055 6.83279 28.1474 6.31244C27.4299 6.1399 26.9041 6.02488 25.0719 6.00571C22.7221 5.98106 20.7311 6.01393 19.6055 6.5644C18.8551 6.93138 18.2773 7.75024 18.6305 7.7968C19.066 7.85431 20.0519 8.06245 20.575 8.7745C21.2515 9.69195 21.2268 11.7569 21.2268 11.7569C21.2268 11.7569 21.6157 17.4396 20.3203 18.1462C19.4302 18.6309 18.2115 17.6423 15.5961 13.1208C14.2569 10.8066 13.2436 8.24594 13.2436 8.24594C13.2436 8.24594 13.0492 7.76941 12.7013 7.51471C12.2796 7.20524 11.688 7.10665 11.688 7.10665L5.42746 7.14499C5.42746 7.14499 4.48809 7.17238 4.14302 7.58044C3.83629 7.94468 4.11837 8.69508 4.11837 8.69508C4.11837 8.69508 9.02058 20.1619 14.5691 25.9432C19.6603 31.2425 25.4389 30.8947 25.4389 30.8947H28.057C28.057 30.8947 28.8485 30.807 29.2511 30.3716C29.6235 29.9717 29.6099 29.2214 29.6099 29.2214C29.6099 29.2214 29.5578 25.7077 31.1901 25.19C32.7977 24.6807 34.8626 28.586 37.0508 30.0895C38.705 31.2261 39.962 30.9768 39.962 30.9768L45.8145 30.8947C45.8145 30.8947 48.8763 30.7057 47.4249 28.2984Z" fill="white"/>
    <defs>
        <filter id="filter0_d" x="0" y="0" width="39" height="39" filterUnits="userSpaceOnUse" color-interpolation-filters="sRGB">
            <feFlood flood-opacity="0" result="BackgroundImageFix"/>
            <feColorMatrix in="SourceAlpha" type="matrix" values="0 0 0 0 0 0 0 0 0 0 0 0 0 0 0 0 0 0 127 0"/>
            <feOffset dy="4"/>
            <feGaussianBlur stdDeviation="2"/>
            <feColorMatrix type="matrix" values="0 0 0 0 0 0 0 0 0 0 0 0 0 0 0 0 0 0 0.25 0"/>
            <feBlend mode="normal" in2="BackgroundImageFix" result="effect1_dropShadow"/>
            <feBlend mode="normal" in="SourceGraphic" in2="effect1_dropShadow" result="shape"/>
        </filter>
    </defs>
</svg>
